<svg width="12" height="14" viewBox="0 0 12 14" fill="none" xmlns="http://www.w3.org/2000/svg">
<path d="M0 0.780675C0.666753 0.589722 1.52666 0.411885 2.57954 0.247163C3.63225 0.0822844 4.73772 0 5.89593 0C7.07151 0 8.04967 0.151766 8.8306 0.455292C9.61137 0.758975 10.23 1.18835 10.6862 1.74341C11.1424 2.29862 11.467 2.95782 11.6601 3.72117C11.8531 4.48451 11.9496 5.33451 11.9496 6.27132V14H8.02789V6.73973C8.02789 5.49065 7.86111 4.60599 7.52773 4.08543C7.19436 3.56503 6.57137 3.30476 5.65904 3.30476C5.37826 3.30476 5.07992 3.31787 4.76407 3.34379C4.44823 3.36987 4.16746 3.40015 3.92189 3.43497V14H0V0.780675Z" fill="#FFFDFA"/>
</svg>
