<svg width="12" height="14" viewBox="0 0 12 14" fill="none" xmlns="http://www.w3.org/2000/svg">
<path d="M6.06508 11.0779C6.44193 11.0779 6.80166 11.0694 7.14443 11.0525C7.48705 11.0355 7.76119 11.0101 7.96673 10.9762V8.10519C7.81254 8.07134 7.58125 8.03735 7.27286 8.0035C6.96447 7.96966 6.68183 7.95274 6.42479 7.95274C6.06506 7.95274 5.72662 7.97393 5.40975 8.01631C5.09273 8.05854 4.81424 8.13903 4.57447 8.25763C4.33454 8.37624 4.14612 8.53707 4.00904 8.74043C3.87196 8.94365 3.8035 9.19778 3.8035 9.50267C3.8035 10.0954 4.00474 10.5062 4.40749 10.7349C4.81009 10.9636 5.36257 11.0779 6.06508 11.0779ZM5.75669 0C6.88739 0 7.82965 0.127141 8.58351 0.381119C9.33736 0.63525 9.94118 0.999446 10.3953 1.47371C10.8492 1.94798 11.1706 2.52392 11.359 3.2014C11.5474 3.87903 11.6416 4.63273 11.6416 5.46281V13.3392C11.0935 13.4578 10.331 13.5976 9.35447 13.7584C8.37796 13.9194 7.19576 13.9999 5.80802 13.9999C4.9342 13.9999 4.1418 13.9237 3.43081 13.7712C2.71982 13.6188 2.10738 13.3689 1.59346 13.0216C1.07937 12.6743 0.68539 12.2213 0.411234 11.6623C0.137077 11.1034 0 10.4174 0 9.60421C0 8.82505 0.158528 8.16449 0.47555 7.62239C0.792418 7.08043 1.21645 6.6484 1.74765 6.32658C2.27869 6.00476 2.88682 5.77182 3.57221 5.62791C4.25744 5.48385 4.96843 5.41189 5.70517 5.41189C6.20198 5.41189 6.6433 5.43308 7.02879 5.47546C7.41427 5.51784 7.7268 5.57288 7.96673 5.64057V5.2849C7.96673 4.64127 7.76969 4.12463 7.37572 3.73497C6.9816 3.34547 6.29635 3.15064 5.31969 3.15064C4.66868 3.15064 4.02615 3.19713 3.39226 3.29043C2.75837 3.38357 2.21023 3.51483 1.74765 3.6842L1.2593 0.635248C1.48196 0.567409 1.76045 0.495455 2.09459 0.419231C2.42857 0.343007 2.7926 0.275319 3.18672 0.216017C3.58069 0.156715 3.99624 0.10595 4.43307 0.0635695C4.87006 0.021189 5.31122 0 5.75669 0Z" fill="#FFFDFA"/>
</svg>
