<svg width="15" height="20" viewBox="0 0 15 20" fill="none" xmlns="http://www.w3.org/2000/svg">
<path fill-rule="evenodd" clip-rule="evenodd" d="M0 9.82343C0 8.47589 0.217714 7.20496 0.653096 6.01104C1.08827 4.81713 1.7176 3.77685 2.54114 2.89041C3.36468 2.00375 4.36462 1.3003 5.54117 0.780264C6.71751 0.260016 8.05881 0 9.56465 0C10.5529 0 11.4586 0.0887294 12.2822 0.265975C13.1057 0.443434 13.9058 0.697491 14.6823 1.02858L13.5881 5.24865C13.0941 5.05949 12.5528 4.89394 11.9645 4.75223C11.3763 4.61031 10.7175 4.53945 9.98817 4.53945C8.43532 4.53945 7.27635 5.02396 6.51168 5.99338C5.74701 6.9626 5.3648 8.23928 5.3648 9.82343C5.3648 11.5021 5.7235 12.8024 6.44116 13.7243C7.15882 14.6465 8.4116 15.1074 10.1999 15.1074C10.8352 15.1074 11.5175 15.0483 12.2471 14.9302C12.9764 14.8119 13.647 14.6227 14.2588 14.3627L15 18.6893C14.3882 18.9494 13.6235 19.1739 12.7057 19.363C11.7881 19.5522 10.7763 19.6469 9.67053 19.6469C7.97643 19.6469 6.51761 19.3926 5.29405 18.8843C4.07049 18.3759 3.06462 17.6844 2.27644 16.8096C1.48826 15.9349 0.911869 14.9006 0.547215 13.7067C0.18235 12.5128 0 11.2182 0 9.82343Z" fill="#FDFDFD"/>
</svg>
