<svg width="58" height="56" viewBox="0 0 58 56" fill="none" xmlns="http://www.w3.org/2000/svg">
<path fill-rule="evenodd" clip-rule="evenodd" d="M2.73303 56C1.09729 55.0235 0 53.2301 0 51.1813C0 50.2173 0.242842 49.3101 0.670381 48.5176L29.0037 2.2839C29.407 1.73386 29.9078 1.26046 30.4806 0.889583C31.3498 0.326707 32.3844 0 33.4944 0C34.6039 0 35.6379 0.32635 36.5069 0.888656C37.0743 1.25589 37.5713 1.72373 37.9727 2.26706L56.8849 33.1275L56.8567 33.1275C56.9047 33.1857 56.9507 33.2456 56.9948 33.3069L57.262 33.7428C57.5074 34.219 57.6462 34.7595 57.6462 35.3324C57.6462 37.244 56.1016 38.796 54.1992 38.796C54.0253 38.796 53.8544 38.783 53.6874 38.7579L53.7176 38.8073L26.7064 38.7363C23.7913 38.5561 21.4792 36.1202 21.4792 33.146C21.4792 33.1088 21.4796 33.0715 21.4803 33.0344L50.2261 33.11L33.4934 5.80593L2.73303 56Z" fill="#003F61"/>
</svg>
