<svg width="19" height="19" viewBox="0 0 19 19" fill="none" xmlns="http://www.w3.org/2000/svg">
<path d="M9.41924 18.9999C14.046 18.9999 17.5129 16.1576 18.3754 12.3593H11.4713C11.106 13.1198 10.4134 13.8123 9.16007 13.8123C7.70704 13.8123 6.55141 12.9541 6.41545 10.8043H18.6728C18.7408 10.3072 18.7705 9.78038 18.7705 9.28329C18.7705 3.53487 14.9042 0 9.41924 0C3.93424 0 0 3.60285 0 9.48297C0 15.3631 3.93 18.9999 9.41924 18.9999ZM9.38525 5.12386C10.8723 5.12386 12.1596 6.01608 12.1596 7.6688H6.44519C6.7426 5.98209 7.8345 5.12386 9.38525 5.12386Z" fill="#BC000A"/>
</svg>
