<svg width="18" height="14" viewBox="0 0 18 14" fill="none" xmlns="http://www.w3.org/2000/svg">
<path d="M7.15544 6.47787C7.15544 5.27732 7.00273 4.42703 6.6973 3.9267C6.39202 3.42652 5.86792 3.17636 5.12514 3.17636C4.89399 3.17636 4.65467 3.18896 4.40717 3.21388C4.15953 3.23894 3.92021 3.26805 3.68906 3.30151V13.4561H0V0.750344C0.313599 0.666906 0.680826 0.579416 1.10183 0.487723C1.52269 0.395881 1.96835 0.312594 2.43882 0.23756C2.90915 0.162526 3.39195 0.10415 3.88723 0.062431C4.38237 0.0207118 4.86933 0 5.34797 0C6.28877 0 7.05219 0.120808 7.63824 0.362568C8.22414 0.604329 8.70695 0.892011 9.08665 1.22546C9.61476 0.842038 10.2213 0.541901 10.9064 0.325051C11.5914 0.108352 12.2228 0 12.8005 0C13.8404 0 14.6946 0.145869 15.3631 0.437603C16.0316 0.729487 16.5639 1.14218 16.9601 1.67567C17.3561 2.20931 17.6286 2.8429 17.7771 3.57659C17.9257 4.31028 17.9999 5.12725 17.9999 6.02766V13.4561H14.3107V6.47787C14.3107 5.27732 14.158 4.42703 13.8527 3.9267C13.5473 3.42652 13.0234 3.17636 12.2806 3.17636C12.0824 3.17636 11.806 3.22648 11.4511 3.32643C11.0962 3.42652 10.8032 3.55153 10.5722 3.7016C10.6876 4.08517 10.7619 4.48946 10.795 4.91475C10.828 5.3399 10.8445 5.79431 10.8445 6.27783V13.4561H7.15544V6.47787Z" fill="#FFFDFA"/>
</svg>
