<svg width="26" height="19" viewBox="0 0 26 19" fill="none" xmlns="http://www.w3.org/2000/svg">
<path fill-rule="evenodd" clip-rule="evenodd" d="M10.1576 9.14678C10.1576 7.4516 9.94084 6.25099 9.50726 5.54452C9.0739 4.83827 8.3299 4.48503 7.27548 4.48503C6.94735 4.48503 6.60761 4.50283 6.25628 4.53801C5.90474 4.57339 5.56501 4.6145 5.23687 4.66175V19H0V1.05949C0.445175 0.941674 0.966478 0.818137 1.56412 0.688668C2.16155 0.558986 2.79421 0.441385 3.46207 0.335436C4.12973 0.229487 4.8151 0.14706 5.51819 0.0881528C6.22106 0.0292452 6.91234 0 7.59181 0C8.92733 0 10.0111 0.170581 10.843 0.511948C11.6747 0.853316 12.3601 1.25952 12.8991 1.73036C13.6488 1.18896 14.5098 0.765166 15.4824 0.458974C16.4548 0.152994 17.3511 0 18.1712 0C19.6474 0 20.86 0.205968 21.8089 0.617897C22.7579 1.03004 23.5135 1.61276 24.0759 2.36605C24.6382 3.11956 25.0249 4.01419 25.2358 5.05016C25.4467 6.08613 25.5521 7.2397 25.5521 8.51109V19H20.315V9.14678C20.315 7.4516 20.0983 6.25099 19.6649 5.54452C19.2313 4.83827 18.4875 4.48503 17.4331 4.48503C17.1518 4.48503 16.7593 4.55581 16.2555 4.69693C15.7517 4.83827 15.3359 5.01478 15.0079 5.22667C15.1718 5.76828 15.2772 6.33913 15.3243 6.93965C15.3711 7.53996 15.3945 8.18159 15.3945 8.86432V19H10.1576V9.14678Z" fill="#FDFDFD"/>
</svg>
