<svg width="19" height="25" viewBox="0 0 19 25" fill="none" xmlns="http://www.w3.org/2000/svg">
<path fill-rule="evenodd" clip-rule="evenodd" d="M7.38236 0C11.0499 0 13.8658 0.647936 15.8297 1.94359C17.7936 3.23946 18.7755 5.36129 18.7755 8.30952C18.7755 11.2815 17.7819 13.4273 15.7941 14.7469C13.8066 16.0663 10.9673 16.7262 7.27588 16.7262H5.53687V25H0V0.641942C1.20661 0.40421 2.48435 0.237731 3.83322 0.142724C5.18187 0.0475021 6.36485 0 7.38236 0ZM7.73735 4.74331C7.33508 4.74331 6.93876 4.75508 6.54841 4.77883C6.15785 4.80259 5.82074 4.82633 5.53687 4.8503V11.9829H7.27588C9.19249 11.9829 10.6359 11.7214 11.6061 11.1983C12.5762 10.6753 13.0613 9.70039 13.0613 8.27399C13.0613 7.58433 12.9371 7.01386 12.6886 6.56215C12.4401 6.11022 12.0853 5.74774 11.6238 5.47427C11.1623 5.2008 10.6003 5.01079 9.93784 4.9038C9.27533 4.79681 8.5419 4.74331 7.73735 4.74331Z" fill="#FDFDFD"/>
</svg>
