<svg width="24" height="27" viewBox="0 0 24 27" fill="none" xmlns="http://www.w3.org/2000/svg">
<path fill-rule="evenodd" clip-rule="evenodd" d="M13.2139 0.0752127C13.8059 0.109825 13.8032 0.120772 14.3869 0.221651C14.9173 0.313359 16.2784 0.596768 17.8083 1.464C19.9984 2.70547 22.3777 5.19801 23.331 9.01249C23.4065 9.31484 23.4344 9.30492 23.4824 9.61067C23.5537 10.066 23.6099 10.0523 23.6598 10.5131C23.7017 10.8999 23.9367 11.6674 23.8973 14.2066C23.8851 14.9886 23.706 17.6281 22.6691 19.9737C22.2491 20.9239 20.6877 24.4954 16.4651 26.1828C13.7131 27.2826 10.0722 27.2742 7.32562 26.1463C5.14477 25.2507 3.90479 23.9962 2.99626 22.9579C2.61386 22.5208 1.85377 21.3702 1.54448 20.716C0.698871 18.9277 0.559733 18.2662 0.218536 16.5724C0.197415 16.4674 0.219865 16.466 0.047199 15.2444C-0.00804243 14.8534 -0.0260625 12.6443 0.055618 12.1325C0.184121 11.3281 0.128732 11.3228 0.277174 10.519C0.749976 7.95888 1.51154 6.42069 2.41564 5.02185C3.48546 3.3671 4.95837 2.27784 4.97698 2.26246C5.20828 2.06958 6.69581 1.00235 8.32322 0.527246C9.06277 0.311436 9.06056 0.313065 9.51371 0.236148C9.76289 0.193844 9.95092 0.112637 10.2595 0.0987332C10.8552 0.0718123 10.8504 0.041636 11.4449 0.00865056C12.1392 -0.0298078 13.1657 0.0722543 13.2139 0.0752127ZM2.6623 11.9846C2.58107 13.9868 2.75698 14.138 2.79125 15.0897C2.80942 15.5927 2.90528 15.6099 2.94073 15.9726C3.00882 16.669 3.47571 19.0827 4.15574 20.4422C4.5544 21.2388 4.53519 21.2479 5.00194 22.0088C5.12646 22.2117 5.55982 22.8084 5.6096 22.877C5.68492 22.9807 6.38844 23.8216 6.62787 24.0576C6.81206 24.2392 7.59799 24.8739 8.19265 25.1566C8.97725 25.5296 8.9901 25.4919 9.81429 25.7587C10.0741 25.8428 10.2909 25.8364 10.4163 25.8608C10.4537 25.8681 10.8143 26.0174 12.3307 26.0025C13.5104 25.991 13.5493 25.8726 13.9493 25.8343C14.2047 25.8098 15.5473 25.491 16.6469 24.7585C18.0631 23.8151 18.6283 23.1153 19.4638 21.7745C19.9473 20.9982 20.3009 20.004 20.3579 19.8437C20.5528 19.2955 20.7199 18.8951 21.0698 17.02C21.1078 16.817 21.0897 16.5382 21.1496 16.1208C21.328 14.8755 21.2324 14.8704 21.2688 13.6146C21.2843 13.0772 21.1853 13.0724 21.0957 11.8344C21.0908 11.7691 20.7288 9.13645 20.0975 7.42387C19.4132 5.56707 17.9812 3.47464 16.7548 2.52945C14.1041 0.486423 10.6707 0.897039 9.23249 1.34656C7.21854 1.97609 5.89836 3.09227 4.67935 4.90514C4.17066 5.66159 3.39063 7.35893 3.11472 8.72095C3.03895 9.09562 3.00439 9.08749 2.96096 9.46556C2.91296 9.88269 2.83408 9.86982 2.78889 10.5115C2.73675 11.2511 2.69879 11.2457 2.6623 11.9846Z" fill="#B1B3B4"/>
</svg>
