<svg width="11" height="14" viewBox="0 0 11 14" fill="none" xmlns="http://www.w3.org/2000/svg">
<path d="M0 7.00005C0 6.03981 0.157653 5.13416 0.472964 4.28339C0.788121 3.43263 1.24391 2.69133 1.84034 2.05967C2.43676 1.42785 3.16093 0.926577 4.013 0.556006C4.86492 0.185284 5.83631 0 6.92687 0C7.6426 0 8.29853 0.0632274 8.89495 0.189531C9.49137 0.315986 10.0708 0.497023 10.6331 0.732951L9.84073 3.74012C9.48294 3.60533 9.09095 3.48736 8.66491 3.38638C8.23887 3.28525 7.76177 3.23476 7.23359 3.23476C6.10899 3.23476 5.26965 3.58001 4.71586 4.27081C4.16207 4.96146 3.88525 5.87121 3.88525 7.00005C3.88525 8.19622 4.14505 9.1228 4.66479 9.77978C5.18453 10.4369 6.09181 10.7653 7.38695 10.7653C7.84703 10.7653 8.34116 10.7232 8.86949 10.639C9.39767 10.5547 9.88336 10.4199 10.3264 10.2347L10.8632 13.3178C10.4201 13.5031 9.86634 13.663 9.20168 13.7978C8.53716 13.9326 7.8044 14.0001 7.00355 14.0001C5.77666 14.0001 4.72015 13.8189 3.83403 13.4567C2.94791 13.0944 2.21944 12.6017 1.64863 11.9783C1.07782 11.355 0.660371 10.618 0.396283 9.7672C0.132042 8.91643 0 7.99395 0 7.00005Z" fill="#FFFDFA"/>
</svg>
