<svg width="15" height="26" viewBox="0 0 15 26" fill="none" xmlns="http://www.w3.org/2000/svg">
<path fill-rule="evenodd" clip-rule="evenodd" d="M1.40174 25.9995C0.649597 25.9995 0.298687 26.0045 0.209199 25.9816C-0.0621985 25.9117 0.00821894 25.6368 0.00821894 25.3245C0.00821894 17.0974 0.00821894 8.87025 0.00821894 0.643147C0.00851235 0.191684 -0.0787775 0.00995333 0.373357 0.000110184C0.382159 -3.67282e-05 13.8654 -3.67282e-05 13.8725 0.000110184C14.1191 0.00290152 14.175 -0.0253062 14.2499 0.213133C14.2526 0.222242 14.2588 0.581002 14.2556 0.64153C14.2535 0.680021 14.2579 0.942848 14.028 0.98795C13.9978 0.993974 13.9977 0.993239 4.92257 0.993239C2.61584 0.993239 2.5664 0.970761 2.49305 1.11855C2.45505 1.1951 2.45916 1.20009 2.45916 10.1925C2.45916 12.1993 2.43144 12.2647 2.60205 12.3289C2.67349 12.3558 2.67657 12.3525 7.1231 12.3525C10.4889 12.3525 10.5129 12.34 10.6029 12.4354C10.6926 12.5304 10.6787 12.9413 10.6772 12.9857C10.6764 13.0147 10.6683 13.2513 10.5078 13.305C10.4353 13.3291 10.433 13.3263 4.92257 13.3263C2.61628 13.3263 2.56258 13.303 2.49099 13.4557C2.45534 13.5319 2.45916 13.5359 2.45916 24.8837C2.45916 25.6007 2.50948 25.8964 2.26625 25.9897C2.23163 26.0031 1.55152 25.9995 1.40174 25.9995Z" fill="#B1B3B4"/>
</svg>
