<svg width="19" height="19" viewBox="0 0 19 19" fill="none" xmlns="http://www.w3.org/2000/svg">
<path d="M12.6332 0.225892V2.76509C11.692 1.13783 9.86814 0 7.2662 0C3.91965 0 1.10854 2.10833 0 5.75188C1.8908 5.77698 7.85602 5.98614 11.5079 7.62177C15.8877 9.58368 16.5822 11.7297 16.5822 11.7297C16.5822 11.7297 16.9419 12.5705 16.6993 13.0599C16.6826 13.0934 16.6951 13.131 16.7202 13.1561C16.9796 13.3653 18.0672 14.2898 17.7409 14.6872C17.7409 14.6872 17.2389 15.4694 15.8626 14.7541C14.5449 14.0681 12.0601 13.9175 9.04823 12.7755C8.81816 12.6876 8.5588 12.7378 8.37474 12.901C7.64269 13.5703 5.51762 15.1306 2.45971 14.1141C2.45971 14.1141 0.978865 13.4489 2.63959 13.2314C2.63959 13.2314 4.04933 13.2816 4.62242 11.7422C4.62242 11.7422 4.14554 12.6332 3.59336 12.6792C3.59336 12.6792 2.22127 12.926 0.0836625 13.2314C1.25077 16.6993 4.00749 18.703 7.25783 18.703C9.8263 18.703 11.6836 17.5652 12.6249 15.9379V18.4771H19V0.225892H12.6249H12.6332Z" fill="#BC000A"/>
</svg>
