<svg width="12" height="14" viewBox="0 0 12 14" fill="none" xmlns="http://www.w3.org/2000/svg">
<path d="M5.93597 11.0781C6.3048 11.0781 6.65688 11.0695 6.99236 11.0526C7.32768 11.0357 7.59601 11.0102 7.79717 10.9764V8.10531C7.64626 8.07147 7.41989 8.03747 7.11807 8.00363C6.81624 7.96978 6.53962 7.95286 6.28805 7.95286C5.93597 7.95286 5.60472 7.97405 5.2946 8.01643C4.98432 8.05866 4.71178 8.13915 4.47711 8.25776C4.24229 8.37636 4.05787 8.5372 3.92371 8.74057C3.78955 8.94378 3.72255 9.19792 3.72255 9.50282C3.72255 10.0955 3.91949 10.5064 4.31367 10.7351C4.7077 10.9637 5.24842 11.0781 5.93597 11.0781ZM5.63415 0C6.74079 0 7.66301 0.127143 8.40082 0.381125C9.13863 0.635259 9.7296 0.999461 10.174 1.47373C10.6183 1.94801 10.9328 2.52396 11.1172 3.20145C11.3017 3.87909 11.3939 4.6328 11.3939 5.46289V13.3394C10.8574 13.458 10.1111 13.5978 9.15538 13.7586C8.19966 13.9196 7.04261 14.0001 5.6844 14.0001C4.82919 14.0001 4.05365 13.9239 3.35779 13.7714C2.66194 13.619 2.06251 13.3691 1.55952 13.0218C1.05638 12.6745 0.670803 12.2215 0.402481 11.6624C0.13416 11.1035 0 10.4175 0 9.60435C0 8.82518 0.155135 8.16461 0.46541 7.6225C0.775535 7.08054 1.19054 6.6485 1.71044 6.32668C2.23018 6.00485 2.82537 5.77191 3.49618 5.628C4.16683 5.48393 4.86269 5.41198 5.58375 5.41198C6.06999 5.41198 6.50189 5.43317 6.87917 5.47555C7.25645 5.51793 7.56235 5.57296 7.79717 5.64065V5.28498C7.79717 4.64134 7.60431 4.12469 7.21873 3.73503C6.83299 3.34552 6.16234 3.15068 5.20647 3.15068C4.56932 3.15068 3.94047 3.19718 3.32007 3.29048C2.69967 3.38363 2.16317 3.51489 1.71044 3.68426L1.2325 0.635258C1.45041 0.567418 1.72296 0.495463 2.04999 0.419238C2.37686 0.343013 2.73317 0.275324 3.1189 0.21602C3.50448 0.156717 3.91119 0.105952 4.33872 0.0635705C4.76641 0.0211894 5.19816 0 5.63415 0Z" fill="#FFFDFA"/>
</svg>
