<svg width="13" height="14" viewBox="0 0 13 14" fill="none" xmlns="http://www.w3.org/2000/svg">
<path d="M0 7.10115C0 5.92182 0.179214 4.88987 0.537789 4.00545C0.896364 3.12103 1.36751 2.38383 1.95123 1.79432C2.53479 1.20465 3.20617 0.75812 3.96489 0.454872C4.72377 0.151624 5.50336 0 6.30396 0C8.17174 0 9.64761 0.577079 10.7317 1.73109C11.8157 2.8851 12.3577 4.58238 12.3577 6.82308C12.3577 7.04217 12.3493 7.28219 12.3327 7.54329C12.316 7.80439 12.2993 8.03607 12.2827 8.23833H3.82741C3.91071 9.01328 4.26929 9.62812 4.90298 10.083C5.53668 10.5379 6.38727 10.7653 7.45459 10.7653C8.13842 10.7653 8.80964 10.7022 9.4684 10.5758C10.1272 10.4495 10.665 10.2936 11.0819 10.1083L11.5822 13.1661C11.3821 13.2671 11.1152 13.3682 10.7817 13.4694C10.4482 13.5703 10.077 13.6589 9.66848 13.7347C9.25992 13.8105 8.8221 13.8736 8.35515 13.9242C7.88821 13.9747 7.42126 14 6.95432 14C5.77023 14 4.74043 13.8231 3.86493 13.4694C2.98928 13.1155 2.26387 12.6312 1.68856 12.0162C1.1131 11.4014 0.687882 10.6727 0.412759 9.83038C0.137486 8.98796 0 8.07822 0 7.10115ZM8.75545 5.66073C8.73879 5.3405 8.68461 5.02891 8.5929 4.72566C8.50104 4.42241 8.35936 4.15283 8.16753 3.91705C7.97571 3.68112 7.73391 3.48735 7.44213 3.33573C7.15019 3.1841 6.78757 3.10829 6.35394 3.10829C5.93698 3.10829 5.57841 3.17986 5.27822 3.32314C4.97803 3.46627 4.72797 3.6558 4.52775 3.89173C4.32767 4.12751 4.17337 4.40134 4.06501 4.71308C3.95664 5.02466 3.87739 5.3405 3.82741 5.66073H8.75545Z" fill="#FFFDFA"/>
</svg>
