<svg width="9" height="14" viewBox="0 0 9 14" fill="none" xmlns="http://www.w3.org/2000/svg">
<path d="M8.34183 3.72055C7.991 3.63375 7.57875 3.54275 7.10507 3.44737C6.6314 3.35183 6.12252 3.30422 5.57875 3.30422C5.33307 3.30422 5.03923 3.32592 4.69724 3.36932C4.35509 3.41256 4.09631 3.46033 3.9209 3.51231V13.9712H0V1.01467C0.701665 0.771927 1.53059 0.541986 2.48678 0.325315C3.4428 0.108489 4.50856 0 5.68406 0C5.89453 0 6.14889 0.0131126 6.44715 0.0390256C6.7454 0.0650948 7.04365 0.0997483 7.34191 0.143145C7.64001 0.186541 7.93826 0.238523 8.23652 0.299247C8.53477 0.359971 8.78913 0.43365 8.99976 0.520444L8.34183 3.72055Z" fill="#FFFDFA"/>
</svg>
