<svg width="23" height="26" viewBox="0 0 23 26" fill="none" xmlns="http://www.w3.org/2000/svg">
<path fill-rule="evenodd" clip-rule="evenodd" d="M7.74049e-06 5.40038C0.0234735 4.72126 0.00487352 2.36954 0.0101865 0.670923C0.0118099 0.151422 0.00251823 -0.0144056 0.521863 0.000965128C0.887574 0.0117542 0.88713 0.0110165 9.8193 0.0110165C10.3316 0.0110165 16.3806 -0.333938 19.1361 2.87175C19.855 3.70797 20.1032 4.50961 20.111 4.52957C20.6259 5.84391 20.8689 8.59439 18.9363 10.6906C18.6157 11.0382 17.2166 12.5557 13.6422 13.3111C13.4882 13.3436 12.1643 13.535 12.0348 13.5448C11.4538 13.5882 11.3618 13.5149 11.3583 13.6837C11.3564 13.7777 11.3539 13.7891 11.4371 13.8308C11.5922 13.9085 11.9562 13.9731 12.026 13.9936C14.4183 14.6985 15.2703 14.8243 16.2637 15.796C16.6118 16.1365 16.6185 16.1432 19.4972 20.9557C21.5318 24.3571 21.5449 24.3486 21.7178 24.6469C22.2945 25.642 22.4316 25.7651 22.2179 25.9465C22.1463 26.0073 21.7606 25.9949 20.888 25.9949C15.1484 25.9949 15.14 26.0031 14.9903 25.9335C14.8571 25.8715 14.8377 25.8627 14.1519 24.296C13.6094 23.0566 10.8958 16.997 10.864 16.923C10.3192 15.6543 9.19931 14.67 8.35041 14.2551C6.98128 13.5859 6.9773 13.6005 6.85997 13.5396C6.7146 13.4642 6.6321 13.1956 7.00475 13.1732C7.60172 13.1373 7.60364 13.1759 8.18969 13.0556C8.46641 12.9988 8.67967 13.0234 8.9369 12.9477C9.54937 12.7672 9.58848 12.7971 10.1031 12.6101C10.5314 12.4547 12.6228 11.7436 13.5939 9.65703C14.785 7.09722 13.8919 3.49707 12.2344 2.08695C11.7343 1.66159 11.7402 1.65465 11.6923 1.62376C10.3541 0.762852 9.27014 0.746299 8.48928 0.699744C7.45753 0.638261 6.50813 1.14682 6.36925 1.99251C6.31361 2.3314 6.3235 2.33318 6.3235 23.727C6.3235 25.8015 6.3576 25.882 6.1377 25.9627C6.03764 25.9994 6.0338 25.9949 1.40706 25.9949C0.306537 25.9949 0.0594811 26.0697 0.00280915 25.6439C-0.000290092 25.6206 7.74049e-06 25.6203 7.74049e-06 5.40038Z" fill="#B1B3B4"/>
</svg>
