<svg width="13" height="27" viewBox="0 0 13 27" fill="none" xmlns="http://www.w3.org/2000/svg">
<path fill-rule="evenodd" clip-rule="evenodd" d="M7.89504 0C8.86468 0 9.75328 0.0985347 10.5613 0.295816C11.3693 0.492889 11.9926 0.684325 12.4312 0.869916L11.427 5.01032C10.9654 4.80156 10.4632 4.64499 9.92074 4.5406C9.37827 4.43622 8.8761 4.38403 8.41445 4.38403C7.79116 4.38403 7.26593 4.47109 6.83897 4.64499C6.41181 4.81889 6.0771 5.05667 5.83464 5.35833C5.59239 5.65978 5.41912 6.01928 5.31523 6.4368C5.21135 6.85433 5.15941 7.30672 5.15941 7.79377V8.69854H11.5309V13.0129H5.15941V27H0V7.72425C0 5.35833 0.6636 3.47946 1.99101 2.08763C3.31841 0.695809 5.28635 0 7.89504 0Z" fill="#FDFDFD"/>
</svg>
