<svg width="13" height="14" viewBox="0 0 13 14" fill="none" xmlns="http://www.w3.org/2000/svg">
<path d="M0 7.10118C0 5.92185 0.183115 4.88989 0.549495 4.00547C0.915875 3.12104 1.39727 2.38384 1.9937 1.79432C2.58996 1.20465 3.27595 0.758123 4.05119 0.454874C4.82659 0.151625 5.62314 0 6.44117 0C8.3496 0 9.8576 0.577082 10.9653 1.7311C12.0729 2.88511 12.6267 4.5824 12.6267 6.82311C12.6267 7.0422 12.6181 7.28222 12.6011 7.54332C12.5841 7.80442 12.567 8.0361 12.55 8.23837H3.91071C3.99583 9.01332 4.36221 9.62816 5.0097 10.083C5.65719 10.5379 6.52629 10.7653 7.61684 10.7653C8.31556 10.7653 9.00139 10.7023 9.67449 10.5758C10.3476 10.4495 10.8971 10.2936 11.3231 10.1084L11.8343 13.1662C11.6298 13.2671 11.3572 13.3683 11.0164 13.4694C10.6756 13.5704 10.2964 13.6589 9.87892 13.7348C9.46147 13.8106 9.01412 13.8736 8.53701 13.9243C8.0599 13.9748 7.58279 14.0001 7.10569 14.0001C5.89582 14.0001 4.84361 13.8232 3.94905 13.4694C3.05434 13.1155 2.31315 12.6312 1.72531 12.0162C1.13733 11.4014 0.702855 10.6727 0.421743 9.83043C0.140479 8.988 0 8.07825 0 7.10118ZM8.94602 5.66075C8.929 5.34052 8.87364 5.02893 8.77993 4.72568C8.68608 4.42243 8.5413 4.15284 8.34531 3.91707C8.14931 3.68114 7.90225 3.48737 7.60411 3.33574C7.30582 3.18412 6.9353 3.1083 6.49224 3.1083C6.06621 3.1083 5.69983 3.17987 5.3931 3.32315C5.08638 3.46629 4.83088 3.65582 4.6263 3.89175C4.42187 4.12752 4.26421 4.40136 4.15348 4.7131C4.04276 5.02468 3.96178 5.34052 3.91071 5.66075H8.94602Z" fill="#FFFDFA"/>
</svg>
