<svg width="17" height="13" viewBox="0 0 17 13" fill="none" xmlns="http://www.w3.org/2000/svg">
<path fill-rule="evenodd" clip-rule="evenodd" d="M2.9249 0L6.83875 0.0133859C7.00041 0.0261884 7.14173 0.112241 7.22976 0.238447L9.70878 4.28358L14.7787 4.30264L16.9365 7.82382C16.977 7.89897 17.0001 7.98495 17.0001 8.07631C17.0001 8.36269 16.774 8.59641 16.4916 8.60695L12.3487 8.59132L14.5094 12.1173C14.549 12.1917 14.5715 12.2767 14.5715 12.3669C14.5715 12.6554 14.3421 12.8905 14.0567 12.8977L10.1667 12.8831C9.99139 12.8734 9.83871 12.7778 9.74981 12.6375C9.74706 12.633 9.74433 12.6285 9.74165 12.624L7.25857 8.57219L2.22377 8.5532L0.0532166 5.01143C0.0191919 4.94123 0 4.86239 0 4.77903C0 4.49599 0.220881 4.26438 0.498798 4.24889L4.61861 4.26438L2.48185 0.77775C2.44304 0.703845 2.42105 0.619683 2.42105 0.530357C2.42105 0.245648 2.64467 0.0129479 2.9249 0Z" fill="#003F61"/>
</svg>
