<svg width="6" height="19" viewBox="0 0 6 19" fill="none" xmlns="http://www.w3.org/2000/svg">
<path fill-rule="evenodd" clip-rule="evenodd" d="M5.92984 3.12369C6.00913 3.75404 5.9999 3.75524 5.9999 9.08286C5.9999 18.2259 6.00302 18.2269 5.9756 18.3298C5.90957 18.5767 5.81119 18.5382 3.91212 18.5382C0.27614 18.5382 0.272265 18.5428 0.176872 18.5071C-0.0288201 18.4302 0.00158276 18.3529 0.00158276 15.9491C0.00158276 0.305684 0.000991651 0.305981 0.00680469 0.271501C0.0649351 -0.0750962 0.575884 0.00909096 0.632971 0.00879243C2.94373 0.00117983 3.02347 -0.0174794 3.92076 0.408528C4.13942 0.512268 5.45153 1.23935 5.86098 2.81083C5.86739 2.8356 5.86604 2.83396 5.92984 3.12369Z" fill="#B1B3B4"/>
</svg>
