<svg width="15" height="26" viewBox="0 0 15 26" fill="none" xmlns="http://www.w3.org/2000/svg">
<path fill-rule="evenodd" clip-rule="evenodd" d="M14.2687 0.496239C14.264 0.796238 14.3066 0.986932 13.8983 0.993249C13.8364 0.99413 2.77837 0.991634 2.75211 0.99472C2.41821 1.03453 2.46912 1.3266 2.46912 1.52464C2.46883 2.35911 2.46604 11.7145 2.46912 11.9554C2.47557 12.4471 2.70649 12.3527 3.48108 12.3527C10.476 12.3527 10.4769 12.3509 10.5318 12.3657C10.6642 12.4014 10.748 12.5043 10.7237 12.9875C10.7025 13.4062 10.4757 13.3264 9.49591 13.3264C2.69372 13.3264 2.69196 13.3239 2.62433 13.3456C2.43861 13.4054 2.46912 13.508 2.46912 15.4815C2.46912 25.7314 2.46985 25.7312 2.46311 25.7669C2.42423 25.975 2.18775 25.9963 2.15723 25.9989C2.15078 25.9995 0.277227 26.0016 0.259622 25.9977C-0.0729537 25.9234 0.00890895 25.8115 0.00890895 25.4716C0.00876224 23.462 0.00641707 0.467591 0.00920443 0.350941C0.0166863 0.0331659 0.0809418 0.0033423 0.399288 0.000110186C0.406329 -3.67285e-05 13.8878 -3.67285e-05 13.8983 0.000110186C13.9299 0.000550928 14.2107 0.00495731 14.2463 0.183605C14.2667 0.286004 14.2484 0.39384 14.2687 0.496239Z" fill="#B1B3B4"/>
</svg>
