<svg width="12" height="20" viewBox="0 0 12 20" fill="none" xmlns="http://www.w3.org/2000/svg">
<path d="M3.73006 12.6182C3.73006 13.7586 3.98361 14.6759 4.49085 15.3699C4.99795 16.0641 5.7505 16.4111 6.7485 16.4111C7.07567 16.4111 7.37839 16.3988 7.65653 16.3739C7.93452 16.3492 8.16363 16.3202 8.34356 16.2872V9.56899C8.1146 9.42025 7.816 9.29635 7.44789 9.19714C7.07979 9.09807 6.70756 9.0484 6.33136 9.0484C4.59716 9.0484 3.73006 10.2383 3.73006 12.6182ZM12.0001 18.8158C11.6728 18.915 11.2966 19.0099 10.8712 19.1009C10.4459 19.1918 10 19.2702 9.53385 19.3364C9.06754 19.4024 8.59313 19.4561 8.11048 19.4975C7.62782 19.5388 7.16563 19.5595 6.72391 19.5595C5.66054 19.5595 4.71171 19.4024 3.8773 19.0884C3.04288 18.7745 2.33936 18.3241 1.76689 17.7374C1.19427 17.1506 0.756525 16.4401 0.453945 15.6055C0.151218 14.7708 0 13.833 0 12.7918C0 11.7341 0.130752 10.7796 0.392547 9.9285C0.654341 9.0774 1.03069 8.35437 1.52144 7.7594C2.0122 7.16443 2.61353 6.70988 3.32514 6.39589C4.03676 6.08189 4.85071 5.92482 5.76684 5.92482C6.27409 5.92482 6.72803 5.9745 7.12882 6.07356C7.52961 6.17278 7.93453 6.31318 8.34356 6.4951V0.594966L12.0001 0V18.8158Z" fill="#FFFDFA"/>
</svg>
