<svg width="16" height="20" viewBox="0 0 16 20" fill="none" xmlns="http://www.w3.org/2000/svg">
<path fill-rule="evenodd" clip-rule="evenodd" d="M8.33576 15.4738C8.8537 15.4738 9.34811 15.4619 9.81922 15.4382C10.2901 15.4146 10.6669 15.379 10.9494 15.3318V11.3214C10.7375 11.2742 10.4196 11.2267 9.99572 11.1794C9.57188 11.1321 9.18343 11.1085 8.83015 11.1085C8.33574 11.1085 7.87059 11.1381 7.43509 11.1973C6.99938 11.2563 6.61663 11.3687 6.28709 11.5344C5.95734 11.7001 5.69837 11.9247 5.50997 12.2088C5.32157 12.4926 5.22748 12.8476 5.22748 13.2735C5.22748 14.1014 5.50406 14.6753 6.0576 14.9947C6.61093 15.3141 7.37025 15.4738 8.33576 15.4738ZM7.91192 0C9.46594 0 10.761 0.177593 11.7971 0.532353C12.8331 0.887326 13.663 1.39604 14.2871 2.0585C14.911 2.72096 15.3527 3.52546 15.6117 4.47177C15.8706 5.41829 16.0001 6.47107 16.0001 7.63053V18.6324C15.2467 18.798 14.1988 18.9933 12.8567 19.2179C11.5146 19.4428 9.88976 19.5552 7.98246 19.5552C6.7815 19.5552 5.69244 19.4488 4.71526 19.2358C3.73809 19.0229 2.89636 18.6739 2.19002 18.1888C1.48348 17.7037 0.941992 17.0709 0.565194 16.29C0.188397 15.5094 0 14.5511 0 13.4153C0 12.327 0.217878 11.4043 0.65359 10.6471C1.08909 9.89006 1.67188 9.28658 2.40195 8.83706C3.13181 8.38754 3.9676 8.06217 4.9096 7.86115C5.85138 7.65992 6.82855 7.55941 7.84111 7.55941C8.52393 7.55941 9.13047 7.58901 9.66028 7.64821C10.1901 7.70741 10.6196 7.78428 10.9494 7.87883V7.38203C10.9494 6.48299 10.6786 5.76134 10.1371 5.21706C9.59543 4.673 8.65362 4.40086 7.31131 4.40086C6.41657 4.40086 5.5335 4.4658 4.66228 4.59612C3.79107 4.72623 3.03771 4.90957 2.40195 5.14615L1.73077 0.887325C2.03678 0.792566 2.41954 0.692059 2.87877 0.585588C3.33779 0.479118 3.83812 0.38457 4.37979 0.301736C4.92125 0.218902 5.49238 0.147993 6.09276 0.0887948C6.69334 0.0295972 7.29968 0 7.91192 0Z" fill="#FDFDFD"/>
</svg>
