<svg width="62" height="60" viewBox="0 0 62 60" fill="none" xmlns="http://www.w3.org/2000/svg">
<path fill-rule="evenodd" clip-rule="evenodd" d="M2.91265 60C1.1694 58.9538 0 57.0323 0 54.8371C0 53.8043 0.258802 52.8322 0.71444 51.9832L30.9099 2.44703C31.3397 1.85771 31.8734 1.35049 32.4838 0.953125C33.4101 0.350043 34.5128 0 35.6957 0C36.8781 0 37.9801 0.349661 38.9061 0.952132C39.5109 1.3456 40.0405 1.84686 40.4683 2.42899L60.6235 35.4938L60.5934 35.4937C60.6445 35.5561 60.6936 35.6202 60.7406 35.686L61.0253 36.153C61.2869 36.6632 61.4348 37.2423 61.4348 37.8561C61.4348 39.9043 59.7887 41.5671 57.7612 41.5671C57.5759 41.5671 57.3937 41.5532 57.2157 41.5264L57.248 41.5793L28.4616 41.5031C25.3549 41.3101 22.8908 38.7003 22.8908 35.5136C22.8908 35.4737 22.8912 35.4338 22.892 35.394L53.527 35.475L35.6947 6.22064L2.91265 60Z" fill="#FFE499"/>
</svg>
