<svg width="13" height="18" viewBox="0 0 13 18" fill="none" xmlns="http://www.w3.org/2000/svg">
<path d="M5.11143 0C7.65078 0 9.60048 0.451023 10.9602 1.35292C12.32 2.25496 12.9999 3.73196 12.9999 5.7842C12.9999 7.85297 12.3119 9.34664 10.9356 10.2652C9.55949 11.1836 7.59357 11.643 5.0377 11.643H3.83364V17.4023H0V0.446851C0.835439 0.281367 1.72013 0.165483 2.65406 0.0993488C3.58785 0.0330658 4.40692 0 5.11143 0ZM5.35722 3.30178C5.07869 3.30178 4.80429 3.30998 4.53402 3.32651C4.2636 3.34305 4.03019 3.35958 3.83364 3.37626V8.34123H5.0377C6.36474 8.34123 7.36413 8.15921 8.03591 7.79503C8.70753 7.43099 9.04342 6.75237 9.04342 5.75947C9.04342 5.2794 8.95746 4.8823 8.78538 4.56786C8.61331 4.25328 8.36767 4.00096 8.04815 3.8106C7.72863 3.62024 7.33951 3.48797 6.8808 3.4135C6.42209 3.33902 5.91428 3.30178 5.35722 3.30178Z" fill="#FFFDFA"/>
</svg>
