<svg width="12" height="19" viewBox="0 0 12 19" fill="none" xmlns="http://www.w3.org/2000/svg">
<path fill-rule="evenodd" clip-rule="evenodd" d="M11.1228 5.04185C10.655 4.92423 10.1053 4.80091 9.47376 4.67166C8.84217 4.54219 8.16364 4.47767 7.43858 4.47767C7.111 4.47767 6.71921 4.50708 6.26321 4.56589C5.80699 4.62448 5.46194 4.68922 5.22804 4.75966V18.9329H0V1.37501C0.935586 1.04607 2.04086 0.734465 3.31581 0.440847C4.59056 0.147017 6.01162 0 7.57901 0C7.85964 0 8.1988 0.0177694 8.59649 0.0528851C8.99418 0.0882124 9.39186 0.135173 9.78955 0.193981C10.187 0.252789 10.5847 0.323232 10.9824 0.405521C11.3801 0.487811 11.7192 0.587656 12.0001 0.705273L11.1228 5.04185Z" fill="#FDFDFD"/>
</svg>
