<svg width="13" height="14" viewBox="0 0 13 14" fill="none" xmlns="http://www.w3.org/2000/svg">
<path d="M12.9332 6.9747C12.9332 8.01924 12.7831 8.97538 12.4829 9.84297C12.1827 10.7106 11.7491 11.4518 11.182 12.0668C10.615 12.6817 9.93549 13.1576 9.14329 13.4945C8.3511 13.8314 7.46299 14 6.47912 14C5.51176 14 4.63206 13.8314 3.84001 13.4945C3.04781 13.1576 2.36819 12.6817 1.80113 12.0668C1.23408 11.4518 0.792197 10.7106 0.475348 9.84297C0.158498 8.97538 0 8.01924 0 6.9747C0 5.93016 0.162702 4.97842 0.487807 4.11917C0.813061 3.25991 1.26334 2.52711 1.83866 1.92062C2.41412 1.31412 3.0978 0.84242 3.88999 0.505512C4.68219 0.168452 5.54523 0 6.47912 0C7.42967 0 8.30111 0.168452 9.09331 0.505512C9.88536 0.84242 10.565 1.31412 11.132 1.92062C11.6991 2.52711 12.141 3.25991 12.4578 4.11917C12.7747 4.97842 12.9332 5.93016 12.9332 6.9747ZM9.13084 6.9747C9.13084 5.81235 8.90149 4.89836 8.44281 4.23288C7.98427 3.56741 7.3297 3.23474 6.47912 3.23474C5.62854 3.23474 4.96977 3.56741 4.50283 4.23288C4.03589 4.89836 3.80249 5.81235 3.80249 6.9747C3.80249 8.1372 4.03589 9.05953 4.50283 9.74184C4.96977 10.4241 5.62854 10.7653 6.47912 10.7653C7.3297 10.7653 7.98427 10.4241 8.44281 9.74184C8.90149 9.05953 9.13084 8.1372 9.13084 6.9747Z" fill="#FFFDFA"/>
</svg>
