<svg width="12" height="14" viewBox="0 0 12 14" fill="none" xmlns="http://www.w3.org/2000/svg">
<path d="M0 0.780672C0.652549 0.58972 1.49414 0.411884 2.52459 0.247162C3.55488 0.082284 4.63679 0 5.77033 0C6.92087 0 7.87819 0.151765 8.64249 0.45529C9.40663 0.758972 10.012 1.18834 10.4586 1.7434C10.9051 2.29861 11.2227 2.95781 11.4117 3.72115C11.6006 4.48449 11.695 5.33449 11.695 6.2713V13.9999H7.85688V6.7397C7.85688 5.49062 7.69365 4.60597 7.36738 4.08542C7.0411 3.56502 6.43138 3.30474 5.53849 3.30474C5.26369 3.30474 4.97171 3.31786 4.66259 3.34378C4.35347 3.36985 4.07868 3.40014 3.83834 3.43496V13.9999H0V0.780672Z" fill="#FFFDFA"/>
</svg>
