<svg width="9" height="14" viewBox="0 0 9 14" fill="none" xmlns="http://www.w3.org/2000/svg">
<path d="M8.18095 3.72819C7.83688 3.64122 7.43258 3.55003 6.96804 3.45445C6.5035 3.35872 6.00444 3.31101 5.47115 3.31101C5.23021 3.31101 4.94204 3.33275 4.60665 3.37624C4.2711 3.41957 4.01731 3.46744 3.84528 3.51953V13.9999H0V1.01675C0.688133 0.773514 1.50107 0.5431 2.43881 0.325984C3.3764 0.108712 4.42161 0 5.57443 0C5.78084 0 6.0303 0.0131396 6.3228 0.0391058C6.6153 0.0652286 6.90781 0.0999533 7.20031 0.143439C7.49266 0.186925 7.78516 0.239014 8.07766 0.299862C8.37017 0.360711 8.61962 0.434542 8.82619 0.521513L8.18095 3.72819Z" fill="#FFFDFA"/>
</svg>
