<svg width="11" height="14" viewBox="0 0 11 14" fill="none" xmlns="http://www.w3.org/2000/svg">
<path d="M0 7.00002C0 6.03979 0.154313 5.13414 0.462907 4.28338C0.771351 3.43261 1.21742 2.69132 1.80113 2.05966C2.38485 1.42784 3.09359 0.926573 3.92752 0.556004C4.76129 0.185283 5.71199 0 6.77931 0C7.4798 0 8.12175 0.0632272 8.70547 0.18953C9.28919 0.315984 9.85626 0.497021 10.4067 0.732948L9.6311 3.74011C9.28093 3.60531 8.89729 3.48735 8.48033 3.38637C8.06337 3.28523 7.59642 3.23474 7.0795 3.23474C5.97886 3.23474 5.15739 3.57999 4.6154 4.27079C4.07341 4.96144 3.80251 5.87118 3.80251 7.00002C3.80251 8.19618 4.05675 9.12276 4.56542 9.77974C5.07409 10.4369 5.96205 10.7653 7.22959 10.7653C7.67988 10.7653 8.1635 10.7231 8.68057 10.639C9.1975 10.5547 9.67285 10.4199 10.1065 10.2346L10.6318 13.3177C10.1982 13.503 9.65617 13.663 9.00566 13.7978C8.3553 13.9326 7.63815 14 6.85436 14C5.6536 14 4.6196 13.8189 3.75236 13.4566C2.88511 13.0944 2.17217 12.6016 1.61351 11.9783C1.05486 11.355 0.646322 10.6179 0.38786 9.76716C0.129247 8.9164 0 7.99392 0 7.00002Z" fill="#FFFDFA"/>
</svg>
