<svg width="10" height="14" viewBox="0 0 10 14" fill="none" xmlns="http://www.w3.org/2000/svg">
<path d="M4.49387 10.8002C5.16868 10.8002 5.64601 10.7336 5.92586 10.6007C6.2057 10.4677 6.3457 10.2098 6.3457 9.82747C6.3457 9.52816 6.16452 9.26626 5.80245 9.04177C5.44023 8.81729 4.88883 8.56362 4.1481 8.28107C3.57196 8.06482 3.04944 7.84033 2.58026 7.60762C2.11108 7.37475 1.71198 7.09625 1.3828 6.77194C1.05347 6.44779 0.79836 6.06107 0.617325 5.61211C0.43629 5.16314 0.345771 4.62273 0.345771 3.99088C0.345771 2.76041 0.798361 1.78764 1.70368 1.07258C2.60901 0.357527 3.85181 0 5.43208 0C6.22215 0 6.97932 0.0706365 7.70361 0.212062C8.4279 0.353337 9.00404 0.507185 9.43204 0.673453L8.79012 3.5669C8.36212 3.41725 7.89709 3.2842 7.39502 3.16777C6.89295 3.05134 6.32911 2.99312 5.70364 2.99312C4.55135 2.99312 3.97536 3.31743 3.97536 3.96589C3.97536 4.11554 3.99995 4.24859 4.04943 4.36502C4.09876 4.48145 4.19758 4.59369 4.34572 4.70175C4.49387 4.8098 4.6955 4.92623 4.95061 5.0509C5.20571 5.17571 5.5309 5.31279 5.92586 5.46245C6.73251 5.76176 7.39917 6.05688 7.92583 6.34796C8.45264 6.6389 8.86819 6.95482 9.17278 7.29574C9.47722 7.63665 9.69129 8.01498 9.8147 8.43073C9.93825 8.84632 9.99988 9.32867 9.99988 9.87731C9.99988 11.1744 9.51841 12.1554 8.55545 12.8206C7.5925 13.4857 6.23044 13.8183 4.46913 13.8183C3.31685 13.8183 2.35805 13.7185 1.59257 13.519C0.827249 13.3194 0.296293 13.1531 0 13.0201L0.617325 10.0021C1.2428 10.2514 1.88472 10.4469 2.54323 10.5882C3.20159 10.7296 3.8518 10.8002 4.49387 10.8002Z" fill="#FFFDFA"/>
</svg>
