<svg width="62" height="59" viewBox="0 0 62 59" fill="none" xmlns="http://www.w3.org/2000/svg">
<path fill-rule="evenodd" clip-rule="evenodd" d="M2.92643 58.9999C1.17494 57.9711 0 56.0817 0 53.9231C0 52.9075 0.260026 51.9516 0.717819 51.1168L31.0561 2.40625C31.4879 1.82675 32.0242 1.32798 32.6375 0.937239C33.5682 0.344208 34.6761 0 35.8646 0C37.0525 0 38.1598 0.343833 39.0902 0.936262C39.6978 1.32317 40.2299 1.81607 40.6598 2.38851L60.9103 34.9022L60.8801 34.9021C60.9314 34.9635 60.9807 35.0265 61.0279 35.0912L61.314 35.5504C61.5768 36.0521 61.7254 36.6216 61.7254 37.2251C61.7254 39.2392 60.0715 40.8743 58.0345 40.8743C57.8483 40.8743 57.6653 40.8606 57.4864 40.8342L57.5188 40.8862L28.5962 40.8114C25.4749 40.6216 22.9991 38.0552 22.9991 34.9217C22.9991 34.8824 22.9995 34.8432 23.0003 34.8041L53.7803 34.8837L35.8635 6.11695L2.92643 58.9999Z" fill="#1A96D9"/>
</svg>
