<svg width="30" height="30" viewBox="0 0 30 30" fill="none" xmlns="http://www.w3.org/2000/svg">
<path fill-rule="evenodd" clip-rule="evenodd" d="M29.2041 17.9817H26.5599C26.2781 19.0786 25.8443 20.1142 25.2824 21.0653L27.1521 22.9351C27.4633 23.2455 27.4633 23.7493 27.1521 24.0606L24.0614 27.1521C23.7509 27.4633 23.2471 27.4633 22.9359 27.1521L21.0653 25.2824C20.1142 25.8443 19.0786 26.2781 17.9817 26.5599V29.2041C17.9817 29.6435 17.6252 30.0001 17.1858 30.0001H12.8143C12.3749 30.0001 12.0183 29.6435 12.0183 29.2041V26.5599C10.9215 26.2781 9.88594 25.8443 8.93476 25.2824L7.06423 27.1521C6.753 27.4633 6.24916 27.4633 5.93873 27.1521L2.84798 24.0606C2.53675 23.7493 2.53675 23.2455 2.84798 22.9351L4.71771 21.0653C4.15576 20.1142 3.72195 19.0786 3.44018 17.9817H0.79597C0.356594 17.9817 0 17.6252 0 17.1858V12.8143C0 12.3749 0.356594 12.0183 0.79597 12.0183H3.44018C3.72195 10.9215 4.15576 9.88594 4.71771 8.93476L2.84798 7.06423C2.53675 6.75301 2.53675 6.24916 2.84798 5.93873L5.93873 2.84718C6.08757 2.69754 6.29055 2.61396 6.50148 2.61396C6.71241 2.61396 6.91538 2.69754 7.06423 2.84718L8.93476 4.71771C9.88594 4.15576 10.9215 3.72195 12.0183 3.44018V0.79597C12.0183 0.356594 12.3749 0 12.8143 0H17.1858C17.6252 0 17.9817 0.356594 17.9817 0.79597V3.44018C19.0786 3.72195 20.1142 4.15576 21.0653 4.71771L22.9359 2.84718C23.0847 2.69754 23.2877 2.61396 23.4986 2.61396C23.7095 2.61396 23.9125 2.69754 24.0614 2.84718L27.1521 5.93873C27.4633 6.24916 27.4633 6.75301 27.1521 7.06423L25.2824 8.93476C25.8443 9.88594 26.2781 10.9215 26.5599 12.0183H29.2041C29.6435 12.0183 30.0001 12.3749 30.0001 12.8143V17.1858C30.0001 17.6252 29.6435 17.9817 29.2041 17.9817ZM28.4082 16.3898V13.6103H25.9255C25.5458 13.6103 25.2187 13.342 25.1447 12.9695C24.8764 11.6204 24.3463 10.3667 23.6085 9.2627C23.3983 8.94749 23.4397 8.52643 23.708 8.25818L25.4639 6.50148L23.4986 4.53543L21.7419 6.29214C21.4737 6.56038 21.0526 6.60257 20.7374 6.39164C19.6334 5.65377 18.3797 5.12366 17.0306 4.85541C16.658 4.78139 16.3898 4.45425 16.3898 4.07457V1.59194H13.6103V4.07457C13.6103 4.45425 13.342 4.78139 12.9695 4.85541C11.6204 5.12366 10.3667 5.65377 9.2627 6.39164C8.94749 6.60257 8.52642 6.56038 8.25818 6.29214L6.50148 4.53543L4.53623 6.50148L6.29214 8.25818C6.56038 8.52643 6.60177 8.94749 6.39164 9.2627C5.65377 10.3667 5.12366 11.6204 4.85541 12.9695C4.78139 13.342 4.45425 13.6103 4.07457 13.6103H1.59194V16.3898H4.07457C4.45425 16.3898 4.78139 16.658 4.85541 17.0306C5.12366 18.3789 5.65377 19.6326 6.39164 20.7374C6.60177 21.0526 6.56038 21.4737 6.29214 21.7419L4.53623 23.4978L6.50148 25.4639L8.25818 23.708C8.52642 23.4397 8.94749 23.3983 9.2627 23.6085C10.3667 24.3463 11.6204 24.8764 12.9695 25.1447C13.342 25.2187 13.6103 25.5458 13.6103 25.9255V28.4082H16.3898V25.9255C16.3898 25.5458 16.658 25.2187 17.0306 25.1447C18.3797 24.8764 19.6334 24.3463 20.7374 23.6085C21.0526 23.3983 21.4737 23.4397 21.7419 23.708L23.4986 25.4639L25.4639 23.4978L23.708 21.7419C23.4397 21.4737 23.3983 21.0526 23.6085 20.7374C24.3463 19.6326 24.8764 18.3789 25.1447 17.0306C25.2187 16.658 25.5458 16.3898 25.9255 16.3898H28.4082ZM15 22.8268C10.6779 22.8268 7.17328 19.3222 7.17328 15C7.17328 10.6771 10.6779 7.17328 15 7.17328C19.3222 7.17328 22.8268 10.6771 22.8268 15C22.8268 19.3222 19.3222 22.8268 15 22.8268ZM15 21.2349C18.4434 21.2349 21.2349 18.4434 21.2349 15C21.2349 11.5559 18.4434 8.76522 15 8.76522C11.5567 8.76522 8.76522 11.5559 8.76522 15C8.76522 18.4434 11.5567 21.2349 15 21.2349Z" fill="#FDFDFD"/>
</svg>
