<svg width="17" height="20" viewBox="0 0 17 20" fill="none" xmlns="http://www.w3.org/2000/svg">
<path fill-rule="evenodd" clip-rule="evenodd" d="M0 9.7166C0 8.10291 0.246534 6.69088 0.739805 5.48071C1.23308 4.27054 1.8812 3.26182 2.68419 2.45519C3.48697 1.64834 4.41054 1.03735 5.45427 0.622407C6.49822 0.207469 7.57065 0 8.67199 0C11.2414 0 13.2717 0.789626 14.763 2.36867C16.2542 3.94772 16.9998 6.27013 16.9998 9.33611C16.9998 9.6359 16.9882 9.96432 16.9653 10.3216C16.9424 10.6788 16.9195 10.9959 16.8966 11.2726H5.26514C5.37973 12.333 5.87301 13.1743 6.74475 13.7967C7.61649 14.4191 8.78659 14.7303 10.2548 14.7303C11.1955 14.7303 12.1189 14.644 13.0251 14.471C13.9314 14.2981 14.6712 14.0849 15.2447 13.8313L15.9329 18.0154C15.6577 18.1535 15.2906 18.2919 14.8318 18.4303C14.373 18.5685 13.8624 18.6896 13.3004 18.7934C12.7383 18.8971 12.136 18.9834 11.4937 19.0527C10.8513 19.1218 10.209 19.1564 9.56665 19.1564C7.93776 19.1564 6.52113 18.9143 5.31676 18.4303C4.11218 17.9461 3.11428 17.2834 2.32285 16.4419C1.53123 15.6006 0.94628 14.6035 0.567809 13.451C0.189132 12.2983 0 11.0535 0 9.7166ZM12.0444 7.74565C12.0214 7.30747 11.9469 6.88112 11.8208 6.46619C11.6944 6.05125 11.4995 5.68237 11.2356 5.35975C10.9717 5.03693 10.6391 4.77179 10.2377 4.56432C9.83611 4.35685 9.33726 4.25312 8.74075 4.25312C8.16716 4.25312 7.67389 4.35104 7.26094 4.5471C6.84799 4.74295 6.504 5.00228 6.22856 5.32511C5.95333 5.64772 5.74107 6.02241 5.59199 6.44896C5.44292 6.87531 5.33389 7.30747 5.26514 7.74565H12.0444Z" fill="#FDFDFD"/>
</svg>
