<svg width="9" height="19" viewBox="0 0 9 19" fill="none" xmlns="http://www.w3.org/2000/svg">
<path d="M5.64639 0C6.33986 0 6.97538 0.0693388 7.55324 0.208166C8.13111 0.346846 8.57687 0.481559 8.89055 0.612159L8.17241 3.52576C7.84225 3.37885 7.48311 3.26867 7.09514 3.19522C6.70717 3.12177 6.34803 3.08504 6.01787 3.08504C5.5721 3.08504 5.19646 3.1463 4.89111 3.26867C4.58561 3.39105 4.34624 3.55837 4.17283 3.77065C3.99958 3.98279 3.87566 4.23576 3.80136 4.52957C3.72707 4.82339 3.68992 5.14173 3.68992 5.48447V6.12116H8.24671V9.15714H3.68992V18.9999H0V5.43555C0 3.77065 0.474595 2.44849 1.42393 1.46907C2.37327 0.48964 3.78071 0 5.64639 0Z" fill="#FFFDFA"/>
</svg>
