<svg width="20" height="20" viewBox="0 0 20 20" fill="none" xmlns="http://www.w3.org/2000/svg">
<path fill-rule="evenodd" clip-rule="evenodd" d="M10.9099 0.0291598C11.0722 0.0386253 11.4909 0.0057921 12.6795 0.281621C16.5085 1.17034 18.2555 3.92922 18.4023 4.1314C18.581 4.37765 19.2007 5.41145 19.4999 6.31141C19.8072 7.23577 19.7571 7.31948 19.9351 8.09106C20.0202 8.45992 20.0181 10.7134 19.9493 11.057C19.6653 12.4764 19.4944 14.0079 17.4354 16.1036C15.4412 18.1333 12.954 18.716 12.3897 18.8886C12.3323 18.9062 12.3286 18.888 11.6609 19.0682C11.6547 19.0699 10.5145 19.2347 10.1755 19.2372C9.10725 19.2449 9.11435 19.1667 8.55418 19.1361C8.19279 19.1164 8.19102 19.1433 7.94926 19.0793C7.65492 19.0012 7.65891 18.996 7.36058 18.945C6.96035 18.8766 4.77846 18.2995 3.11331 16.7894C1.27463 15.1217 0.683587 13.563 0.261208 12.0932C0.217936 11.9429 0.205381 11.698 0.153986 11.49C-0.00713846 10.8378 0.060501 10.8304 0.0151616 10.1625C0.00467598 10.0096 -0.0257439 9.5622 0.0480988 8.24739C0.0733529 7.7963 0.141139 7.80843 0.201246 7.36222C0.244223 7.04232 0.68255 5.2708 1.78783 3.97862C2.91747 2.65819 4.33318 1.19859 7.67633 0.299222C8.52316 0.0714592 9.01835 0.0488292 9.13694 0.043357C9.67466 0.018806 9.6757 -0.0323656 10.9099 0.0291598ZM13.9363 11.4963C13.9803 10.681 13.9503 10.6828 13.9354 9.86746C13.9128 8.63133 13.8819 8.63592 13.663 6.76989C13.6103 6.32161 13.5688 6.33108 13.513 5.88206C13.465 5.49398 13.4021 5.47904 13.337 5.12616C13.1752 4.25031 12.4751 2.55703 12.0418 1.91811C11.1028 0.534083 9.92395 0.565141 9.87861 0.559225C9.50674 0.510715 8.63584 0.58851 7.828 1.45342C6.9283 2.41682 6.4086 4.23019 6.27716 5.27716C6.20938 5.81758 6.14365 5.83843 6.128 6.31658C6.06243 8.31705 6.07956 8.31468 6.1252 10.3143C6.14233 11.0608 6.2364 11.0493 6.28263 11.7962C6.3098 12.2369 6.35204 12.2301 6.42972 12.8358C6.49426 13.3389 7.06994 16.4362 8.41166 17.8468C9.45815 18.947 11.9905 19.5225 13.3123 15.6483C13.8469 14.0818 13.9584 12.3403 13.9363 11.4963Z" fill="#B1B3B4"/>
</svg>
