<svg width="18" height="14" viewBox="0 0 18 14" fill="none" xmlns="http://www.w3.org/2000/svg">
<path d="M7.15552 6.33998C7.15552 5.16498 7.0028 4.33279 6.69752 3.84312C6.39209 3.35358 5.86798 3.10874 5.1252 3.10874C4.8942 3.10874 4.65487 3.12108 4.40723 3.14546C4.15958 3.16999 3.92026 3.19848 3.68925 3.23123V13.1696H0V0.734372C0.313603 0.652709 0.680982 0.567082 1.10184 0.477341C1.5227 0.387454 1.96837 0.30594 2.43885 0.232503C2.90933 0.159066 3.39214 0.101933 3.88728 0.061102C4.38242 0.0202709 4.86939 0 5.34804 0C6.28899 0 7.05227 0.118236 7.63833 0.354851C8.22424 0.591465 8.70705 0.873023 9.08676 1.19938C9.61488 0.824114 10.2216 0.530365 10.9066 0.318132C11.5916 0.106046 12.2229 0 12.8007 0C13.8406 0 14.6948 0.142764 15.3633 0.428288C16.0318 0.713958 16.5641 1.11786 16.9603 1.64C17.3565 2.16229 17.6288 2.78239 17.7773 3.50046C17.9259 4.21852 18.0002 5.01811 18.0002 5.89936V13.1696H14.311V6.33998C14.311 5.16498 14.1583 4.33279 13.8529 3.84312C13.5476 3.35358 13.0235 3.10874 12.2807 3.10874C12.0827 3.10874 11.8061 3.1578 11.4513 3.25562C11.0964 3.35358 10.8033 3.47593 10.5723 3.6228C10.6879 3.99821 10.7622 4.39389 10.7952 4.81013C10.8281 5.22623 10.8446 5.67096 10.8446 6.14419V13.1696H7.15552V6.33998Z" fill="#FFFDFA"/>
</svg>
