<svg width="506" height="578" viewBox="0 0 506 578" fill="none" xmlns="http://www.w3.org/2000/svg">
<path d="M351.744 540.389L290.547 442.25L347.762 350.202H465.28L351.744 540.389ZM271.161 411.161L233.051 350.047H309.148L271.161 411.161ZM190.663 540.666L34.5366 286.329C32.2295 282.565 32.3045 277.755 34.7293 274.067L190.69 36.8842L250.045 125.942L166.246 257.439C157.132 271.748 157.04 290.29 166.014 304.682L173.873 317.287H117.672C110.503 317.287 106.077 326.195 109.769 333.193L115.978 344.957C117.645 348.115 120.644 350.047 123.88 350.047H194.303L251.818 442.277L190.663 540.666ZM345.751 36.9334L463.084 208.514H345.66C344.982 208.514 344.359 208.182 343.982 207.615L289.282 125.543L345.751 36.9334ZM503.061 328.754C499.059 321.708 491.538 317.331 483.431 317.331H454.14V317.287H212.622L193.916 287.292C191.601 283.58 191.625 278.794 193.981 275.103L269.973 155.849L316.612 225.836C323.098 235.57 333.956 241.385 345.66 241.385H482.611C491.012 241.385 498.662 236.771 502.58 229.343C506.497 221.916 505.987 213 501.248 206.078L368.666 12.2034C363.356 4.43454 354.505 -0.139631 345.154 0.0374923C335.742 0.190051 327.1 5.01633 322.043 12.9532L269.355 95.636L213.914 12.4439C208.699 4.6233 199.81 0.0568862 190.577 0C181.178 0.029736 172.484 4.7319 167.318 12.5848L7.25191 256.011C-2.14087 270.3 -2.43312 288.947 6.51349 303.519L166.824 564.681C171.934 572.995 180.804 577.974 190.562 578H190.638C200.363 578 209.23 573.076 214.362 564.814L271.205 473.367L328.127 564.654C333.273 572.902 342.115 577.806 351.824 577.806C351.918 577.806 352.009 577.806 352.101 577.802C361.919 577.71 370.786 572.623 375.823 564.192L502.816 351.466C506.97 344.504 507.067 335.804 503.061 328.754Z" fill="#096699" fill-opacity="0.08"/>
</svg>
