<svg width="13" height="17" viewBox="0 0 13 17" fill="none" xmlns="http://www.w3.org/2000/svg">
<path d="M5.10192 0C7.63654 0 9.58261 0.440596 10.9398 1.32164C12.2971 2.20283 12.9757 3.64567 12.9757 5.65047C12.9757 7.67141 12.289 9.13055 10.9153 10.0279C9.5417 10.9251 7.57943 11.3738 5.02833 11.3738H3.82651V17H0V0.43652C0.833885 0.274862 1.71693 0.161657 2.64912 0.0970519C3.58117 0.0323014 4.39872 0 5.10192 0ZM5.34725 3.22545C5.06924 3.22545 4.79535 3.23345 4.52558 3.2496C4.25567 3.26576 4.02269 3.28191 3.82651 3.2982V8.14838H5.02833C6.35289 8.14838 7.35043 7.97057 8.02095 7.61481C8.69133 7.25919 9.02659 6.59626 9.02659 5.62631C9.02659 5.15734 8.94079 4.76942 8.76904 4.46226C8.59729 4.15495 8.35209 3.90846 8.03317 3.7225C7.71424 3.53654 7.32585 3.40733 6.868 3.33458C6.41014 3.26183 5.90328 3.22545 5.34725 3.22545Z" fill="#FFFDFA"/>
</svg>
