<svg width="9" height="20" viewBox="0 0 9 20" fill="none" xmlns="http://www.w3.org/2000/svg">
<path d="M5.71598 0C6.41799 0 7.06134 0.0717209 7.64633 0.215317C8.23132 0.358761 8.68258 0.498103 9.00012 0.633189L8.27313 3.64688C7.9389 3.49493 7.57533 3.38097 7.18258 3.30499C6.78983 3.22901 6.42627 3.19102 6.09203 3.19102C5.64077 3.19102 5.26051 3.25439 4.95139 3.38097C4.64213 3.50754 4.3998 3.68062 4.22426 3.90019C4.04887 4.11961 3.92342 4.38128 3.84821 4.68518C3.773 4.98909 3.7354 5.31838 3.7354 5.67288V6.33145H8.34834V9.47172H3.7354V19.6526H0V5.62228C0 3.90019 0.480445 2.53261 1.44148 1.51954C2.40252 0.506461 3.8273 0 5.71598 0Z" fill="#FFFDFA"/>
</svg>
