<svg width="15" height="12" viewBox="0 0 15 12" fill="none" xmlns="http://www.w3.org/2000/svg">
<path d="M2.17913 10.9254C3.01171 10.5898 4.24782 10.1735 5.61137 10.0036C6.63085 9.87618 7.62908 9.61706 8.59333 9.26874C10.73 8.49139 14.0008 7.18306 14.6082 6.28252C14.6082 6.28252 15.6447 4.97844 13.3169 2.76958C13.3169 2.76958 13.3169 2.76958 13.3169 2.76533V2.77382C12.2932 1.08744 10.3774 0 7.93068 0C3.50445 0 0 3.56817 0 9.48113C0 10.3774 0.0892073 11.2142 0.242129 12.0001C0.403546 11.9236 0.560714 11.8387 0.705139 11.7367C1.1724 11.4181 1.6609 11.1378 2.18338 10.9254H2.17913Z" fill="#BC000A"/>
</svg>
