<svg width="18" height="19" viewBox="0 0 18 19" fill="none" xmlns="http://www.w3.org/2000/svg">
<path d="M9.11715 0C3.7125 0 0 3.6784 0 9.41551C0 15.1526 3.87874 18.8651 9.11715 18.8651C13.5926 18.8651 16.4782 16.312 17.5054 13.128H13.4264C12.7316 14.5516 11.4359 15.6812 9.11715 15.6812C6.33384 15.6812 4.17709 13.8569 3.91283 10.8391H17.8677C17.9658 10.2083 17.9999 9.61158 17.9999 8.98502C17.9999 3.61447 14.3215 0 9.11715 0ZM3.94693 7.79156C4.34333 4.90595 6.40204 3.18397 8.95092 3.18397C11.7683 3.18397 13.989 4.97415 14.0572 7.79156H3.94693Z" fill="#BC000A"/>
</svg>
