<svg width="18" height="14" viewBox="0 0 18 14" fill="none" xmlns="http://www.w3.org/2000/svg">
<path fill-rule="evenodd" clip-rule="evenodd" d="M3.09696 0L7.24105 0.0142492C7.41221 0.0278774 7.56184 0.11948 7.65505 0.253826L10.2799 4.55986L15.648 4.58015L17.9328 8.32843C17.9757 8.40842 18.0001 8.49994 18.0001 8.5972C18.0001 8.90205 17.7607 9.15084 17.4617 9.16207L13.0751 9.14542L15.363 12.8988C15.4049 12.978 15.4287 13.0685 15.4287 13.1646C15.4287 13.4717 15.1858 13.7218 14.8836 13.7296L10.7647 13.714C10.5791 13.7037 10.4175 13.6019 10.3234 13.4525C10.3204 13.4477 10.3175 13.443 10.3147 13.4382L7.68555 9.12506L2.35458 9.10485L0.0563471 5.33465C0.0203209 5.25992 0 5.17599 0 5.08725C0 4.78596 0.233874 4.53942 0.52814 4.52292L4.8903 4.53942L2.62784 0.827912C2.58676 0.74924 2.56347 0.65965 2.56347 0.564563C2.56347 0.261491 2.80024 0.013783 3.09696 0Z" fill="#FFE499"/>
</svg>
