<svg width="13" height="14" viewBox="0 0 13 14" fill="none" xmlns="http://www.w3.org/2000/svg">
<path d="M12.9999 6.86136C12.9999 7.88892 12.849 8.82953 12.5473 9.68302C12.2455 10.5365 11.8097 11.2658 11.2397 11.8707C10.6697 12.4756 9.98659 12.9438 9.19045 13.2752C8.39417 13.6067 7.50148 13.7725 6.51254 13.7725C5.54019 13.7725 4.65595 13.6067 3.85967 13.2752C3.06339 12.9438 2.3804 12.4756 1.81042 11.8707C1.24044 11.2658 0.796283 10.5365 0.477799 9.68302C0.159165 8.82953 0 7.88892 0 6.86136C0 5.8338 0.163391 4.89752 0.490322 4.05223C0.817254 3.20694 1.26986 2.48605 1.84814 1.88941C2.42642 1.29277 3.11377 0.828731 3.91006 0.497297C4.70619 0.165714 5.57368 0 6.51254 0C7.46799 0 8.34378 0.165714 9.14006 0.497297C9.93635 0.828731 10.6195 1.29277 11.1895 1.88941C11.7593 2.48605 12.2036 3.20694 12.5221 4.05223C12.8406 4.89752 12.9999 5.8338 12.9999 6.86136ZM9.17778 6.86136C9.17778 5.7179 8.94725 4.81876 8.48635 4.1641C8.0253 3.50944 7.36736 3.18218 6.51254 3.18218C5.65757 3.18218 4.99541 3.50944 4.52605 4.1641C4.0567 4.81876 3.82195 5.7179 3.82195 6.86136C3.82195 8.00497 4.0567 8.91231 4.52605 9.58353C4.99541 10.2548 5.65757 10.5904 6.51254 10.5904C7.36736 10.5904 8.0253 10.2548 8.48635 9.58353C8.94725 8.91231 9.17778 8.00497 9.17778 6.86136Z" fill="#FFFDFA"/>
</svg>
