<svg width="19" height="18" viewBox="0 0 19 18" fill="none" xmlns="http://www.w3.org/2000/svg">
<path d="M12.635 11.5923C12.6064 11.5719 12.6269 11.531 12.6596 11.5392C13.3506 11.7232 16.2824 12.4102 18.3842 11.6823V11.4411C18.3842 11.4411 18.3678 11.4656 18.3515 11.4738C17.5664 11.9113 16.4256 11.9072 16.033 11.8908C15.9512 11.8908 15.8776 11.8377 15.8449 11.76L14.5691 8.68506C14.5691 8.68506 14.5896 8.65235 14.6019 8.6687C15.6405 10.2389 17.6932 11.0608 18.3351 11.2898C18.3556 11.2979 18.3678 11.3102 18.3801 11.3225V7.60147C18.3801 2.92773 15.804 0 11.67 0C9.15938 0 7.28253 1.17764 6.23165 2.70284V0.159472H0V17.9998H6.23165V8.42745C6.23165 6.35841 7.37658 5.15215 9.22072 5.15215C11.0649 5.15215 12.1485 6.3625 12.1485 8.42745V17.9998H18.3801V13.3506C17.9957 13.2566 17.6318 13.1503 17.2965 13.0317C17.2965 13.0317 13.6818 12.2997 12.631 11.5883L12.635 11.5923Z" fill="#BC000A"/>
</svg>
