<svg width="18" height="14" viewBox="0 0 18 14" fill="none" xmlns="http://www.w3.org/2000/svg">
<path fill-rule="evenodd" clip-rule="evenodd" d="M3.09691 0L7.24093 0.0139455C7.41209 0.0272832 7.56172 0.116933 7.65493 0.248416L10.2797 4.46267L15.6478 4.48253L17.9325 8.15092C17.9754 8.22921 17.9998 8.31878 17.9998 8.41396C17.9998 8.71232 17.7604 8.95581 17.4614 8.96679L13.0749 8.9505L15.3627 12.6239C15.4047 12.7014 15.4284 12.7899 15.4284 12.884C15.4284 13.1845 15.1855 13.4294 14.8834 13.437L10.7645 13.4217C10.579 13.4117 10.4173 13.312 10.3232 13.1658C10.3203 13.1611 10.3174 13.1565 10.3145 13.1518L7.68543 8.93057L2.35455 8.91079L0.0563462 5.22095C0.0203206 5.14782 0 5.06567 0 4.97883C0 4.68396 0.233871 4.44266 0.528131 4.42652L4.89022 4.44267L2.6278 0.810266C2.58672 0.733271 2.56343 0.645591 2.56343 0.55253C2.56343 0.255918 2.8002 0.0134893 3.09691 0Z" fill="#1A96D9"/>
</svg>
