<svg width="16" height="19" viewBox="0 0 16 19" fill="none" xmlns="http://www.w3.org/2000/svg">
<path fill-rule="evenodd" clip-rule="evenodd" d="M0 1.05949C0.89035 0.800338 2.03863 0.558988 3.44459 0.335436C4.85034 0.111672 6.32653 0 7.87315 0C9.44296 0 10.7492 0.205968 11.792 0.617897C12.8346 1.03004 13.6606 1.61276 14.2699 2.36605C14.8791 3.11956 15.3125 4.01419 15.5704 5.05016C15.8281 6.08613 15.9569 7.2397 15.9569 8.51109V19H10.7201V9.14678C10.7201 7.4516 10.4974 6.25099 10.0522 5.54452C9.60701 4.83827 8.7751 4.48503 7.55682 4.48503C7.18187 4.48503 6.78349 4.50283 6.36172 4.53801C5.93995 4.57339 5.56503 4.6145 5.2371 4.66175V19H0V1.05949Z" fill="#FDFDFD"/>
</svg>
