<svg width="18" height="20" viewBox="0 0 18 20" fill="none" xmlns="http://www.w3.org/2000/svg">
<path fill-rule="evenodd" clip-rule="evenodd" d="M18.0001 9.65552C18.0001 11.1015 17.7912 12.4252 17.3734 13.6262C16.9556 14.8273 16.3521 15.8535 15.5629 16.7049C14.7737 17.556 13.828 18.2149 12.7254 18.6813C11.6229 19.1477 10.3868 19.3811 9.01749 19.3811C7.67115 19.3811 6.4468 19.1477 5.34444 18.6813C4.24188 18.2149 3.29599 17.556 2.50677 16.7049C1.71756 15.8535 1.10256 14.8273 0.661578 13.6262C0.220595 12.4252 0 11.1015 0 9.65552C0 8.2095 0.226445 6.89194 0.678918 5.70242C1.1316 4.5129 1.75829 3.49845 2.559 2.65883C3.35991 1.81922 4.31144 1.16622 5.41401 0.699812C6.51657 0.233199 7.71773 0 9.01749 0C10.3404 0 11.5533 0.233199 12.6559 0.699812C13.7582 1.16622 14.7041 1.81922 15.4933 2.65883C16.2825 3.49845 16.8975 4.5129 17.3385 5.70242C17.7795 6.89194 18.0001 8.2095 18.0001 9.65552ZM12.7081 9.65552C12.7081 8.04641 12.3889 6.78111 11.7505 5.85985C11.1123 4.93859 10.2013 4.47806 9.01749 4.47806C7.83367 4.47806 6.91682 4.93859 6.26694 5.85985C5.61706 6.78111 5.29222 8.04641 5.29222 9.65552C5.29222 11.2648 5.61706 12.5417 6.26694 13.4862C6.91682 14.4308 7.83367 14.9031 9.01749 14.9031C10.2013 14.9031 11.1123 14.4308 11.7505 13.4862C12.3889 12.5417 12.7081 11.2648 12.7081 9.65552Z" fill="#FDFDFD"/>
</svg>
