<svg width="21" height="27" viewBox="0 0 21 27" fill="none" xmlns="http://www.w3.org/2000/svg">
<path d="M10.1984 11.2696C10.0961 11.565 9.9469 11.9672 9.75031 12.4751C9.55357 12.9838 9.32967 13.5714 9.07814 14.2374C8.82723 14.9038 8.54562 15.6375 8.23563 16.4387C7.92517 17.2396 7.60934 18.0797 7.28876 18.9589H13.1047C12.7938 18.0771 12.4922 17.2343 12.2008 16.4307C11.9088 15.6275 11.6316 14.8923 11.3692 14.2256C11.1063 13.5593 10.8763 12.9724 10.678 12.4642C10.4799 11.9568 10.32 11.5586 10.1984 11.2696ZM15.7891 1.4088C15.672 1.70237 15.5106 2.02511 15.3052 2.3773C15.0996 2.7295 14.8504 3.05746 14.5565 3.36039C14.2631 3.66394 13.9302 3.91348 13.5587 4.10883C13.1871 4.3045 12.7762 4.40226 12.326 4.40226C11.974 4.40226 11.6464 4.34854 11.343 4.24097C11.0396 4.1337 10.7414 4.01614 10.448 3.88877C10.1545 3.76155 9.86127 3.64415 9.56738 3.53657C9.27396 3.42914 8.97056 3.37513 8.65765 3.37513C8.26617 3.37513 7.94328 3.50265 7.6893 3.75664C7.43501 4.01123 7.22921 4.3045 7.07299 4.63706L4.93063 3.22857C5.04773 2.93499 5.20932 2.6121 5.41512 2.25991C5.6203 1.90771 5.86983 1.58037 6.16325 1.27682C6.45668 0.973573 6.78923 0.724349 7.16107 0.528375C7.53261 0.333016 7.94328 0.234953 8.39385 0.234953C8.74574 0.234953 9.07338 0.288972 9.37678 0.396397C9.67972 0.504128 9.97836 0.621374 10.2718 0.748595C10.5652 0.87597 10.8539 0.99337 11.1378 1.10049C11.4211 1.20837 11.7292 1.26208 12.0622 1.26208C12.4533 1.26208 12.7762 1.13517 13.0304 0.880574C13.2847 0.626438 13.4901 0.333016 13.6468 0L15.7891 1.4088ZM15.6992 27.0002C15.4725 26.2935 15.2296 25.5678 14.969 24.8231C14.7084 24.0781 14.4489 23.3363 14.1908 22.598H6.24766C5.99091 23.3398 5.73325 24.0834 5.47558 24.8289C5.2173 25.5744 4.97683 26.2986 4.75446 27.0002H0C0.765477 24.8092 1.49136 22.7843 2.17811 20.9251C2.86547 19.0666 3.53703 17.3155 4.19478 15.6719C4.85206 14.0284 5.49983 12.4685 6.13763 10.9911C6.77527 9.51382 7.43792 8.07081 8.12513 6.66201H12.4646C13.133 8.07081 13.7912 9.51382 14.4403 10.9911C15.0885 12.4685 15.7425 14.0284 16.4011 15.6719C17.0595 17.3155 17.7329 19.0666 18.4207 20.9251C19.1085 22.7843 19.8358 24.8092 20.6025 27.0002H15.6992Z" fill="#FDFDFD"/>
</svg>
