<svg width="42" height="42" viewBox="0 0 42 42" fill="none" xmlns="http://www.w3.org/2000/svg">
<path fill-rule="evenodd" clip-rule="evenodd" d="M40.914 25.1511H37.1842C36.7879 26.7016 36.1744 28.1653 35.3774 29.5085L38.016 32.1471C38.4405 32.5705 38.4405 33.2589 38.016 33.6824L33.6824 38.016C33.2589 38.4405 32.5705 38.4405 32.1471 38.016L29.5085 35.3774C28.1653 36.1744 26.7005 36.7879 25.15 37.1842V40.914C25.15 41.5134 24.6635 41.9999 24.0641 41.9999H17.9357C17.3363 41.9999 16.8499 41.5134 16.8499 40.914V37.1842C15.2993 36.7879 13.8346 36.1744 12.4914 35.3774L9.85281 38.016C9.42934 38.4405 8.74093 38.4405 8.31745 38.016L3.98391 33.6824C3.55935 33.2589 3.55935 32.5705 3.98391 32.1471L6.62247 29.5085C5.82547 28.1653 5.21198 26.7016 4.81565 25.1511H1.08583C0.486452 25.1511 0 24.6646 0 24.0652V17.9357C0 17.3364 0.486452 16.8499 1.08583 16.8499H4.81565C5.21198 15.2993 5.82547 13.8356 6.62247 12.4925L3.98391 9.8539C3.55935 9.43043 3.55935 8.7431 3.98391 8.31854L8.31745 3.98391C8.5205 3.77977 8.79739 3.66576 9.08513 3.66576C9.37288 3.66576 9.64976 3.77977 9.85281 3.98391L12.4914 6.62247C13.8346 5.82547 15.2993 5.21307 16.8499 4.81565V1.08583C16.8499 0.486452 17.3363 0 17.9357 0H24.0641C24.6635 0 25.15 0.486452 25.15 1.08583V4.81565C26.7005 5.21307 28.1653 5.82547 29.5085 6.62247L32.1471 3.98391C32.3501 3.77977 32.627 3.66576 32.9147 3.66576C33.2025 3.66576 33.4794 3.77977 33.6824 3.98391L38.016 8.31854C38.4405 8.7431 38.4405 9.43043 38.016 9.8539L35.3774 12.4925C36.1744 13.8356 36.7879 15.2993 37.1842 16.8499H40.914C41.5134 16.8499 41.9999 17.3364 41.9999 17.9357V24.0652C41.9999 24.6646 41.5134 25.1511 40.914 25.1511ZM39.8282 22.9794V19.0216H36.3177C35.7998 19.0216 35.3535 18.6556 35.2525 18.1475C34.8758 16.2527 34.1309 14.4915 33.0939 12.9398C32.8062 12.5098 32.8637 11.9354 33.2296 11.5695L35.7129 9.08622L32.9147 6.28695L30.4315 8.77024C30.0655 9.13617 29.4911 9.19372 29.0611 8.90597C27.5095 7.86901 25.7472 7.12521 23.8513 6.74734C23.3442 6.64528 22.9783 6.20009 22.9783 5.68214V2.17166H19.0216V5.68214C19.0216 6.20009 18.6556 6.64528 18.1486 6.74734C16.2527 7.12521 14.4904 7.86901 12.9387 8.90597C12.5088 9.19372 11.9343 9.13617 11.5684 8.77024L9.08513 6.28695L6.28695 9.08622L8.77024 11.5695C9.13617 11.9354 9.19372 12.5098 8.90597 12.9398C7.86901 14.4915 7.12413 16.2527 6.74734 18.1475C6.64636 18.6556 6.20008 19.0216 5.68214 19.0216H2.17166V22.9794H5.68214C6.20008 22.9794 6.64636 23.3453 6.74734 23.8535C7.12413 25.7483 7.86901 27.5095 8.90597 29.0611C9.19372 29.4911 9.13617 30.0655 8.77024 30.4315L6.28695 32.9147L9.08513 35.7129L11.5684 33.2296C11.9343 32.8637 12.5088 32.8062 12.9387 33.0939C14.4904 34.1309 16.2527 34.8758 18.1475 35.2525C18.6556 35.3535 19.0216 35.7998 19.0216 36.3177V39.8282H22.9783V36.3177C22.9783 35.7998 23.3442 35.3535 23.8524 35.2525C25.7472 34.8758 27.5095 34.1309 29.0611 33.0939C29.4911 32.8062 30.0655 32.8637 30.4315 33.2296L32.9147 35.7129L35.7129 32.9147L33.2296 30.4315C32.8637 30.0655 32.8062 29.4911 33.0939 29.0611C34.1309 27.5095 34.8758 25.7483 35.2525 23.8535C35.3535 23.3453 35.7998 22.9794 36.3177 22.9794H39.8282ZM20.9999 32.3773C14.7173 32.3773 9.62262 27.2836 9.62262 20.9999C9.62262 14.7173 14.7173 9.62371 20.9999 9.62371C27.2825 9.62371 32.3773 14.7173 32.3773 20.9999C32.3773 27.2836 27.2825 32.3773 20.9999 32.3773ZM20.9999 30.2056C26.0838 30.2056 30.2056 26.0849 30.2056 20.9999C30.2056 15.9161 26.0838 11.7954 20.9999 11.7954C15.9161 11.7954 11.7943 15.9161 11.7943 20.9999C11.7943 26.0849 15.9161 30.2056 20.9999 30.2056Z" fill="#0D6DA0"/>
</svg>
