<svg width="11" height="11" viewBox="0 0 11 11" fill="none" xmlns="http://www.w3.org/2000/svg">
<path d="M2.44943 5.50772C2.44943 6.025 2.5126 6.49153 2.63957 6.90738C2.76647 7.32339 2.94897 7.68092 3.18749 7.9799C3.42553 8.2792 3.71735 8.51007 4.06231 8.67213C4.40695 8.83459 4.8026 8.91566 5.249 8.91566C5.68505 8.91566 6.07815 8.83459 6.42796 8.67213C6.77786 8.51007 7.07199 8.2792 7.3105 7.9799C7.54878 7.68092 7.73128 7.32339 7.85818 6.90738C7.98483 6.49153 8.04832 6.025 8.04832 5.50772C8.04832 4.99043 7.98483 4.52144 7.85818 4.10026C7.73128 3.67955 7.54878 3.3194 7.3105 3.0201C7.07199 2.72104 6.77786 2.49024 6.42796 2.32787C6.07815 2.16565 5.68505 2.08442 5.249 2.08442C4.8026 2.08442 4.40695 2.16811 4.06231 2.33542C3.71735 2.50281 3.42553 2.73632 3.18749 3.03529C2.94897 3.33459 2.76647 3.69467 2.63957 4.11561C2.5126 4.53655 2.44943 5.00054 2.44943 5.50772ZM10.498 5.50772C10.498 6.41054 10.3634 7.20397 10.0947 7.88873C9.82581 8.57324 9.45817 9.14646 8.99172 9.60789C8.52511 10.0696 7.9698 10.4169 7.32578 10.6501C6.68136 10.8833 5.98928 11 5.249 11C4.52876 11 3.84917 10.8833 3.21016 10.6501C2.57115 10.4169 2.01337 10.0696 1.53658 9.60789C1.05979 9.14646 0.684676 8.57324 0.410837 7.88873C0.13684 7.20397 0 6.41054 0 5.50772C0 4.60497 0.142011 3.81122 0.425953 3.12655C0.709896 2.44195 1.09289 1.86635 1.57461 1.39974C2.05633 0.933294 2.61412 0.583399 3.24819 0.349976C3.88203 0.116712 4.54896 0 5.249 0C5.96899 0 6.64874 0.116712 7.28775 0.349976C7.92652 0.583399 8.4843 0.933294 8.96117 1.39974C9.43796 1.86635 9.81324 2.44195 10.0871 3.12655C10.3609 3.81122 10.498 4.60497 10.498 5.50772Z" fill="#FFFAF3"/>
</svg>
