<svg width="16" height="21" viewBox="0 0 16 21" fill="none" xmlns="http://www.w3.org/2000/svg">
<path d="M6.53085 3.98436C6.19108 3.98436 5.8571 3.99455 5.52736 4.01413C5.19777 4.03433 4.91329 4.05454 4.67378 4.07397V10.0655H6.14142C7.75897 10.0655 8.97676 9.84601 9.79604 9.40645C10.6148 8.96752 11.0246 8.14825 11.0246 6.95004C11.0246 6.37091 10.9197 5.89172 10.7101 5.51216C10.5 5.13291 10.2005 4.82807 9.81107 4.59843C9.42165 4.36909 8.94716 4.209 8.38808 4.11892C7.829 4.02932 7.20961 3.98436 6.53085 3.98436ZM6.23134 0C9.32687 0 11.7034 0.544355 13.3612 1.63259C15.0186 2.72146 15.8475 4.50381 15.8475 6.97996C15.8475 9.47678 15.0088 11.2787 13.3311 12.3873C11.6537 13.4958 9.25685 14.05 6.14142 14.05H4.67378V20.9999H0V0.539342C1.01869 0.339615 2.09737 0.199884 3.23558 0.11968C4.37411 0.0401021 5.37227 0 6.23134 0Z" fill="#FDFDFD"/>
</svg>
