<svg width="11" height="11" viewBox="0 0 11 11" fill="none" xmlns="http://www.w3.org/2000/svg">
<path d="M5.4451 2.46007C5.39045 2.61779 5.31081 2.83255 5.20585 3.10368C5.1008 3.3753 4.98126 3.68903 4.84696 4.04464C4.713 4.40041 4.56264 4.79215 4.39713 5.21994C4.23137 5.64757 4.06275 6.09609 3.89158 6.5655H6.99682C6.83082 6.0947 6.66981 5.6447 6.51421 5.21568C6.35829 4.78682 6.21031 4.39426 6.0702 4.03833C5.92984 3.68256 5.80702 3.36924 5.70115 3.09786C5.59537 2.82698 5.51 2.61435 5.4451 2.46007ZM8.38204 10.8589C8.26102 10.4816 8.13131 10.0941 7.99219 9.69647C7.85306 9.29875 7.7145 8.90267 7.57669 8.50847H3.33564C3.19864 8.90455 3.06107 9.30153 2.9235 9.69958C2.7856 10.0976 2.65721 10.4843 2.53848 10.8589H0C0.4087 9.68909 0.796261 8.60794 1.16293 7.61528C1.52992 6.62302 1.88848 5.68804 2.23966 4.8105C2.59059 3.93304 2.93645 3.10016 3.27698 2.31135C3.61742 1.52263 3.97122 0.752179 4.33814 0H6.65506C7.0119 0.752179 7.36332 1.52263 7.70991 2.31135C8.05601 3.10016 8.40515 3.93304 8.75682 4.8105C9.10825 5.68804 9.46787 6.62302 9.83511 7.61528C10.2023 8.60794 10.5906 9.68909 11 10.8589H8.38204Z" fill="#FFFAF3"/>
</svg>
