<svg width="17" height="21" viewBox="0 0 17 21" fill="none" xmlns="http://www.w3.org/2000/svg">
<path d="M6.35117 3.9843C6.01139 3.9843 5.70701 3.99449 5.43757 4.01422C5.16781 4.03428 4.91341 4.05448 4.67373 4.07391V9.7062H5.99181C7.74898 9.7062 9.00721 9.48657 9.76667 9.047C10.5252 8.60806 10.9047 7.85895 10.9047 6.80045C10.9047 5.78189 10.5202 5.058 9.75163 4.6283C8.98231 4.19923 7.84908 3.9843 6.35117 3.9843ZM6.08173 0C9.19723 0 11.5835 0.55408 13.2414 1.66255C14.8988 2.77103 15.7278 4.49358 15.7278 6.83021C15.7278 8.28833 15.3933 9.47169 14.7243 10.3801C14.0553 11.2893 13.0916 12.003 11.8334 12.5223C12.2531 13.0418 12.692 13.6357 13.1515 14.3047C13.6109 14.9741 14.0655 15.6728 14.5148 16.4017C14.9639 17.1309 15.3986 17.8899 15.8177 18.6785C16.2374 19.4679 16.6268 20.2416 16.986 21.0002H11.762C11.3808 20.3215 10.9948 19.6326 10.6038 18.9332C10.213 18.2344 9.81225 17.5551 9.40151 16.8961C8.99014 16.237 8.58425 15.6129 8.18353 15.0238C7.78203 14.4348 7.38085 13.9003 6.98029 13.4211H4.67373V21.0002H0V0.539199C1.01856 0.339466 2.0722 0.199889 3.16078 0.119526C4.24889 0.0401031 5.22264 0 6.08173 0Z" fill="#FDFDFD"/>
</svg>
