<svg width="9" height="9" viewBox="0 0 9 9" fill="none" xmlns="http://www.w3.org/2000/svg">
<path d="M8.93521 7.78176C8.98483 7.70832 9.00666 7.61975 8.99823 7.53168L8.92876 6.81369C8.91413 6.66434 8.81414 6.53732 8.67248 6.48819L6.65225 5.78931C6.51357 5.74143 6.35975 5.77666 6.2558 5.88061L5.51499 6.62142C5.43733 6.69907 5.32222 6.7281 5.21777 6.69386C4.21944 6.36712 3.44712 5.55288 3.44712 5.55288C3.44712 5.55288 2.63288 4.78056 2.30614 3.78198C2.2719 3.67753 2.30093 3.56267 2.37858 3.48501L3.11939 2.74396C3.22309 2.64025 3.25857 2.48643 3.21069 2.34775L2.51156 0.327518C2.46268 0.185856 2.33566 0.0856256 2.18631 0.0712362L1.46832 0.00176987C1.38 -0.00666533 1.29168 0.0151669 1.21824 0.0647857C0.820549 0.333472 -0.374025 1.31171 0.116209 3.02108C0.527549 4.45456 1.55143 5.93693 2.30738 6.69262C3.06307 7.44857 4.54543 8.47245 5.97892 8.88354C7.68829 9.37403 8.66653 8.17945 8.93521 7.78176Z" fill="#F4F5F5"/>
</svg>
