<svg width="15" height="17" viewBox="0 0 15 17" fill="none" xmlns="http://www.w3.org/2000/svg">
<path d="M7.99178 16.5438C6.40746 16.5438 5.01495 16.1931 3.81427 15.4918C2.61337 14.7905 1.67746 13.8193 1.00654 12.5781C0.335389 11.3369 -0.000126288 9.91413 3.5658e-08 8.30977C3.5658e-08 6.68524 0.327946 5.24732 0.983829 3.99599C1.63971 2.74492 2.5504 1.76609 3.7159 1.0595C4.88142 0.353358 6.22096 0.000193201 7.7345 0C9.23793 0 10.5321 0.355679 11.6169 1.06704C12.7015 1.77859 13.5364 2.77508 14.1219 4.05649C14.707 5.3381 14.9996 6.84162 14.9998 8.56706V9.50535H3.39046C3.60241 10.7972 4.12462 11.8139 4.95709 12.5553C5.78956 13.297 6.84148 13.6678 8.11288 13.6678C9.13198 13.6678 10.0099 13.5164 10.7466 13.2137C11.483 12.911 12.1743 12.4519 12.8202 11.8364L14.6365 14.0613C12.8301 15.7164 10.6152 16.5439 7.99178 16.5438ZM10.4893 3.97317C9.77269 3.24171 8.83426 2.87592 7.67398 2.87578C6.54373 2.87578 5.59773 3.24918 4.83598 3.99598C4.07398 4.74272 3.59214 5.74674 3.39046 7.00805H11.7153C11.6143 5.71639 11.2056 4.70477 10.4893 3.97317Z" fill="white"/>
</svg>
