<svg width="9" height="11" viewBox="0 0 9 11" fill="none" xmlns="http://www.w3.org/2000/svg">
<path d="M5.60667 2.07202C4.49944 2.07202 3.69957 2.37922 3.20698 2.99371C2.71423 3.60835 2.46821 4.44869 2.46821 5.51529C2.46821 6.0333 2.529 6.50318 2.65089 6.92455C2.77278 7.34608 2.95578 7.70913 3.19957 8.01386C3.44319 8.31859 3.74801 8.55473 4.11369 8.72227C4.4792 8.88989 4.90591 8.97371 5.39332 8.97371C5.65734 8.97371 5.88336 8.96861 6.0713 8.95849C6.25916 8.94845 6.42407 8.92798 6.56652 8.89754V5.2257H8.94319V10.4516C8.65886 10.5635 8.20172 10.6827 7.57218 10.8096C6.94216 10.9365 6.16523 11 5.241 11C4.44877 11 3.73024 10.8781 3.08508 10.6343C2.44001 10.3906 1.8891 10.0352 1.4322 9.56787C0.974984 9.10086 0.622131 8.52685 0.373167 7.84624C0.124203 7.16587 0 6.38886 0 5.51529C0 4.63153 0.13703 3.84958 0.411488 3.1689C0.685707 2.48861 1.06126 1.91205 1.53872 1.43969C2.01617 0.967416 2.57728 0.609385 3.22235 0.365599C3.86719 0.121893 4.55529 0 5.28673 0C5.78426 0 6.23374 0.0329831 6.63504 0.0990283C7.03609 0.165153 7.38153 0.241316 7.67105 0.327517C7.96056 0.413958 8.19925 0.502709 8.38711 0.594168C8.57504 0.685548 8.70961 0.756692 8.79095 0.807441L8.10524 2.71184C7.78011 2.5392 7.40694 2.3895 6.98542 2.26243C6.56381 2.1356 6.1042 2.07202 5.60667 2.07202Z" fill="#FFFAF3"/>
</svg>
