<svg width="18" height="18" viewBox="0 0 18 18" fill="none" xmlns="http://www.w3.org/2000/svg">
<path d="M4.87891 15.1332L2.1763 15.8238L2.86693 13.1212C0.919939 10.2356 1.22253 6.28414 3.77615 3.73051C6.67376 0.832911 11.3718 0.832911 14.2696 3.73051C17.1672 6.62835 17.1672 11.3264 14.2696 14.224C11.716 16.7776 7.76459 17.0802 4.87891 15.1332ZM15.3709 2.62946C11.865 -0.876486 6.1808 -0.876486 2.67486 2.62946C-0.232237 5.53655 -0.728599 9.9415 1.18553 13.36L0 18.0001L4.63986 16.8144C8.05865 18.7288 12.4636 18.2324 15.3709 15.3253C18.8766 11.8193 18.8766 6.13516 15.3709 2.62946Z" fill="#F4F5F5"/>
</svg>
