<svg width="17" height="21" viewBox="0 0 17 21" fill="none" xmlns="http://www.w3.org/2000/svg">
<path d="M10.6577 3.93884C8.55296 3.93884 7.03249 4.5228 6.09612 5.69072C5.15946 6.85924 4.69181 8.45664 4.69181 10.4841C4.69181 11.4688 4.80736 12.362 5.03906 13.1628C5.27077 13.9643 5.61863 14.6542 6.08204 15.2335C6.54515 15.8128 7.12456 16.2616 7.81968 16.5803C8.51449 16.8987 9.32561 17.0582 10.2521 17.0582C10.754 17.0582 11.1836 17.0485 11.5409 17.0291C11.898 17.0102 12.2115 16.9713 12.4823 16.9134V9.93365H17.0001V19.8675C16.4596 20.0801 15.5906 20.3066 14.3939 20.548C13.1963 20.7893 11.7194 20.9098 9.96258 20.9098C8.45664 20.9098 7.09079 20.6783 5.86442 20.2149C4.6382 19.7516 3.59098 19.0759 2.72246 18.1877C1.85334 17.2998 1.18261 16.2088 0.709352 14.915C0.236097 13.6217 0 12.1447 0 10.4841C0 8.8042 0.260479 7.3178 0.782195 6.02389C1.30346 4.73058 2.01735 3.63475 2.92494 2.73685C3.83253 1.83911 4.89913 1.15853 6.12535 0.694965C7.35112 0.231706 8.65912 0 10.0495 0C10.9953 0 11.8497 0.0628488 12.6125 0.188242C13.3749 0.313939 14.0315 0.458869 14.5818 0.622728C15.1322 0.787042 15.5859 0.955747 15.943 1.12945C16.3002 1.30331 16.556 1.43854 16.7107 1.53501L15.4072 5.15492C14.7892 4.82689 14.0798 4.54234 13.2785 4.30079C12.4771 4.05969 11.6034 3.93884 10.6577 3.93884Z" fill="#FDFDFD"/>
</svg>
