<svg width="20" height="21" viewBox="0 0 20 21" fill="none" xmlns="http://www.w3.org/2000/svg">
<path d="M4.66651 10.493C4.66651 11.4785 4.78685 12.3673 5.02876 13.1595C5.27051 13.9521 5.61821 14.6332 6.07261 15.2028C6.52611 15.773 7.08206 16.2129 7.73927 16.5216C8.39586 16.8311 9.14962 16.9856 10.0001 16.9856C10.8308 16.9856 11.5797 16.8311 12.2462 16.5216C12.9128 16.2129 13.4731 15.773 13.9275 15.2028C14.3815 14.6332 14.7292 13.9521 14.9709 13.1595C15.2122 12.3673 15.3332 11.4785 15.3332 10.493C15.3332 9.50747 15.2122 8.61397 14.9709 7.81156C14.7292 7.01007 14.3815 6.32392 13.9275 5.75371C13.4731 5.18396 12.9128 4.74426 12.2462 4.43491C11.5797 4.12586 10.8308 3.97111 10.0001 3.97111C9.14962 3.97111 8.39586 4.13056 7.73927 4.44931C7.08206 4.76821 6.52611 5.21307 6.07261 5.78266C5.61821 6.35286 5.27051 7.03887 5.02876 7.84082C4.78685 8.64277 4.66651 9.52672 4.66651 10.493ZM20.0001 10.493C20.0001 12.213 19.7437 13.7246 19.2318 15.0291C18.7195 16.3332 18.0191 17.4253 17.1305 18.3044C16.2415 19.1841 15.1836 19.8457 13.9566 20.2899C12.7289 20.7342 11.4104 20.9565 10.0001 20.9565C8.62791 20.9565 7.33321 20.7342 6.11581 20.2899C4.89841 19.8457 3.83576 19.1841 2.9274 18.3044C2.01905 17.4253 1.3044 16.3332 0.782702 15.0291C0.260699 13.7246 0 12.213 0 10.493C0 8.77312 0.270551 7.26091 0.811501 5.95651C1.35245 4.65226 2.0821 3.55566 2.99985 2.66671C3.9176 1.77806 4.98026 1.11146 6.18826 0.666752C7.39581 0.222352 8.66641 0 10.0001 0C11.3718 0 12.6668 0.222352 13.8842 0.666752C15.1011 1.11146 16.1638 1.77806 17.0723 2.66671C17.9806 3.55566 18.6956 4.65226 19.2173 5.95651C19.739 7.26091 20.0001 8.77312 20.0001 10.493Z" fill="#FDFDFD"/>
</svg>
