<svg width="9" height="11" viewBox="0 0 9 11" fill="none" xmlns="http://www.w3.org/2000/svg">
<path d="M3.32677 2.08699C3.14879 2.08699 2.98936 2.09233 2.84822 2.10267C2.70692 2.11317 2.57366 2.12376 2.44812 2.13393V5.08415H3.13853C4.05895 5.08415 4.71801 4.9691 5.11582 4.73886C5.51313 4.50894 5.71195 4.11655 5.71195 3.5621C5.71195 3.02858 5.5105 2.6494 5.10794 2.42432C4.70497 2.19957 4.11138 2.08699 3.32677 2.08699ZM3.18563 0C4.81755 0 6.06749 0.290229 6.93589 0.870853C7.80403 1.45148 8.23827 2.35376 8.23827 3.57769C8.23827 4.34146 8.06308 4.96131 7.71262 5.43715C7.36224 5.9134 6.85744 6.28724 6.19837 6.55925C6.4182 6.83135 6.64812 7.14242 6.88879 7.49288C7.12945 7.8435 7.36758 8.20947 7.60291 8.59127C7.83817 8.97324 8.06587 9.37079 8.28537 9.78386C8.50519 10.1973 8.70918 10.6026 8.89734 11H6.16096C5.96132 10.6445 5.75913 10.2837 5.55432 9.91728C5.34959 9.55123 5.1397 9.19544 4.92455 8.85024C4.70907 8.50503 4.49646 8.17812 4.28657 7.86951C4.07626 7.56098 3.86612 7.28101 3.6563 7.03H2.44812V11H0V0.282434C0.533523 0.177814 1.08543 0.104703 1.65563 0.0626082C2.22559 0.0210062 2.73564 0 3.18563 0Z" fill="#FFFAF3"/>
</svg>
