<svg width="9" height="11" viewBox="0 0 9 11" fill="none" xmlns="http://www.w3.org/2000/svg">
<path d="M5.60668 2.0721C4.49944 2.0721 3.69957 2.3793 3.20698 2.99371C2.71423 3.60843 2.46821 4.44877 2.46821 5.51538C2.46821 6.03338 2.529 6.50327 2.65089 6.92456C2.77279 7.34616 2.95578 7.70913 3.19957 8.01387C3.4432 8.3186 3.74801 8.55473 4.11369 8.72236C4.47921 8.8899 4.90591 8.97379 5.39333 8.97379C5.65735 8.97379 5.88337 8.96869 6.07131 8.9585C6.25916 8.94854 6.42408 8.92806 6.56653 8.89763V5.22578H8.9432V10.4516C8.65886 10.5635 8.20172 10.6827 7.57218 10.8097C6.94216 10.9366 6.16523 11 5.241 11C4.44877 11 3.73024 10.8782 3.08509 10.6344C2.44001 10.3907 1.8891 10.0352 1.4322 9.56796C0.974984 9.10086 0.622132 8.52693 0.373168 7.84632C0.124203 7.16595 0 6.38894 0 5.51538C0 4.63161 0.13703 3.84967 0.411488 3.16898C0.685708 2.48861 1.06127 1.91213 1.53872 1.43977C2.01617 0.967496 2.57728 0.609465 3.22236 0.3656C3.86719 0.121893 4.55529 0 5.28673 0C5.78426 0 6.23375 0.0330628 6.63504 0.0990284C7.03609 0.165153 7.38154 0.241396 7.67105 0.327598C7.96057 0.414038 8.19925 0.502789 8.38711 0.594168C8.57505 0.685628 8.70961 0.756772 8.79095 0.807521L8.10524 2.71184C7.78012 2.53928 7.40695 2.38958 6.98542 2.26251C6.56382 2.13568 6.10421 2.0721 5.60668 2.0721Z" fill="#FFFAF3"/>
</svg>
