<svg width="9" height="11" viewBox="0 0 9 11" fill="none" xmlns="http://www.w3.org/2000/svg">
<path d="M4.37213 11C3.61484 11 2.96137 10.8936 2.41171 10.6811C1.86173 10.4687 1.40824 10.1731 1.05018 9.79435C0.692361 9.41579 0.427946 8.9645 0.256767 8.44063C0.0855891 7.917 0 7.33871 0 6.7059V0H2.42733V6.50348C2.42733 6.93924 2.47631 7.31007 2.57508 7.61606C2.67352 7.92213 2.80834 8.17109 2.97959 8.36285C3.15077 8.55485 3.35807 8.69227 3.60199 8.77517C3.84541 8.85824 4.11259 8.89973 4.40321 8.89973C4.99428 8.89973 5.47405 8.71822 5.84252 8.35496C6.21042 7.99218 6.3947 7.37491 6.3947 6.50348V0H8.82179V6.7059C8.82179 7.33871 8.73368 7.91944 8.55746 8.44844C8.38091 8.97743 8.1112 9.43133 7.74843 9.80981C7.38508 10.1885 6.9237 10.4815 6.3637 10.689C5.80331 10.8963 5.1395 11 4.37213 11Z" fill="#FFFAF3"/>
</svg>
