<svg width="17" height="43" viewBox="0 0 17 43" fill="none" xmlns="http://www.w3.org/2000/svg">
<path fill-rule="evenodd" clip-rule="evenodd" d="M2.18886 25.3907C2.18886 25.9948 1.69855 26.4852 1.09443 26.4852C0.490304 26.4852 0 25.9948 0 25.3907V1.09443C0 0.490304 0.490304 0 1.09443 0H15.4347C16.0388 0 16.5291 0.490304 16.5291 1.09443V41.9056C16.5291 42.5098 16.0388 43.0001 15.4347 43.0001H1.09443C0.490304 43.0001 0 42.5098 0 41.9056V30.3343C0 29.7301 0.490304 29.2398 1.09443 29.2398C1.69855 29.2398 2.18886 29.7301 2.18886 30.3343V40.8112H14.3403V2.18886H2.18886V25.3907Z" fill="#0D6DA0"/>
</svg>
