<svg width="17" height="60" viewBox="0 0 17 60" fill="none" xmlns="http://www.w3.org/2000/svg">
<path fill-rule="evenodd" clip-rule="evenodd" d="M14.3178 45.2078C14.3178 44.6046 14.8074 44.115 15.4105 44.115C16.0137 44.115 16.5033 44.6046 16.5033 45.2078V58.9071C16.5033 59.5103 16.0137 59.9998 15.4105 59.9998H1.09271C0.489536 59.9998 0 59.5103 0 58.9071V1.09271C0 0.489536 0.489536 0 1.09271 0H15.4105C16.0137 0 16.5033 0.489536 16.5033 1.09271V5.38599C16.5033 5.98916 16.0137 6.4787 15.4105 6.4787C14.8074 6.4787 14.3178 5.98916 14.3178 5.38599V2.18543H2.18543V57.8144H14.3178V45.2078Z" fill="#0D6DA0"/>
</svg>
