<svg width="20" height="21" viewBox="0 0 20 21" fill="none" xmlns="http://www.w3.org/2000/svg">
<path d="M4.66651 10.4928C4.66651 11.4783 4.78685 12.3671 5.02876 13.1594C5.27051 13.9519 5.61821 14.6331 6.07261 15.2028C6.52611 15.773 7.08206 16.2127 7.73927 16.5216C8.39586 16.8311 9.14962 16.9854 10.0001 16.9854C10.8308 16.9854 11.5797 16.8311 12.2463 16.5216C12.9129 16.2127 13.4731 15.773 13.9275 15.2028C14.3815 14.6331 14.7292 13.9519 14.9709 13.1594C15.2122 12.3671 15.3332 11.4783 15.3332 10.4928C15.3332 9.50732 15.2122 8.61382 14.9709 7.81157C14.7292 7.00992 14.3815 6.32376 13.9275 5.75356C13.4731 5.18381 12.9129 4.74411 12.2463 4.43476C11.5797 4.12571 10.8308 3.97111 10.0001 3.97111C9.14962 3.97111 8.39586 4.13041 7.73927 4.44916C7.08206 4.76806 6.52611 5.21291 6.07261 5.78266C5.61821 6.35271 5.27051 7.03887 5.02876 7.84067C4.78685 8.64262 4.66651 9.52657 4.66651 10.4928ZM20.0001 10.4928C20.0001 12.213 19.7437 13.7246 19.2318 15.029C18.7197 16.3332 18.0191 17.4253 17.1305 18.3042C16.2415 19.1839 15.1836 19.8455 13.9566 20.2899C12.7289 20.734 11.4104 20.9564 10.0001 20.9564C8.62791 20.9564 7.33336 20.734 6.11596 20.2899C4.89841 19.8455 3.83576 19.1839 2.9274 18.3042C2.01905 17.4253 1.3044 16.3332 0.782702 15.029C0.260699 13.7246 0 12.213 0 10.4928C0 8.77297 0.270551 7.26092 0.811501 5.95636C1.35245 4.65226 2.0821 3.55551 2.99985 2.66655C3.9176 1.77791 4.98026 1.1113 6.18841 0.666601C7.39581 0.222201 8.66641 0 10.0001 0C11.3718 0 12.6668 0.222201 13.8842 0.666601C15.1013 1.1113 16.1638 1.77791 17.0723 2.66655C17.9806 3.55551 18.6956 4.65226 19.2173 5.95636C19.739 7.26092 20.0001 8.77297 20.0001 10.4928Z" fill="#FDFDFD"/>
</svg>
