<svg width="16" height="17" viewBox="0 0 16 17" fill="none" xmlns="http://www.w3.org/2000/svg">
<path d="M16.0001 16.5583H12.6823V14.2947C12.0931 15.1423 11.3438 15.7961 10.4342 16.2559C9.52459 16.7157 8.49097 16.9457 7.33338 16.946C5.90706 16.946 4.64349 16.5816 3.54268 15.8528C2.44188 15.1241 1.57625 14.1216 0.945767 12.8451C0.315225 11.5686 -3.19658e-05 10.1086 2.43102e-09 8.46527C2.43102e-09 6.81154 0.320437 5.34895 0.96131 4.0775C1.60204 2.80631 2.48834 1.8089 3.62021 1.08526C4.752 0.361952 6.05172 0.000197898 7.5194 0C8.62534 0 9.61761 0.214506 10.4962 0.643515C11.3629 1.06277 12.1135 1.68826 12.6823 2.46515V0.387692H16.0001V16.5583ZM12.6203 6.04663C12.2583 5.12671 11.6873 4.40056 10.9071 3.86819C10.1265 3.33596 9.22472 3.06984 8.20163 3.06984C6.75442 3.06984 5.60197 3.55561 4.74428 4.52715C3.88623 5.49875 3.45729 6.81145 3.45745 8.46525C3.45745 10.1295 3.87089 11.4473 4.69775 12.4188C5.52452 13.3904 6.64598 13.8762 8.06214 13.8761C9.10592 13.8761 10.0361 13.6074 10.8528 13.0698C11.6692 12.5326 12.2583 11.8091 12.6203 10.8993V6.04663Z" fill="white"/>
</svg>
