<svg width="16" height="21" viewBox="0 0 16 21" fill="none" xmlns="http://www.w3.org/2000/svg">
<path d="M6.53101 3.9843C6.19123 3.9843 5.85709 3.99449 5.52749 4.01422C5.19789 4.03428 4.91341 4.05448 4.67373 4.07391V10.0656H6.14157C7.75916 10.0656 8.97698 9.84609 9.79627 9.40652C10.6149 8.96758 11.0249 8.14829 11.0249 6.95021C11.0249 6.37091 10.9198 5.89171 10.7103 5.51214C10.5003 5.13288 10.2008 4.82819 9.81131 4.59838C9.42187 4.3692 8.94737 4.20894 8.38828 4.11887C7.82919 4.02926 7.20978 3.9843 6.53101 3.9843ZM6.23149 0C9.3271 0 11.7037 0.544212 13.3615 1.63263C15.0189 2.72137 15.8479 4.50376 15.8479 6.97997C15.8479 9.47686 15.0092 11.2788 13.3313 12.3875C11.654 13.4959 9.25708 14.0502 6.14157 14.0502H4.67373V21.0002H0V0.539199C1.01856 0.339466 2.09742 0.199889 3.23566 0.119526C4.37421 0.0401031 5.3724 0 6.23149 0Z" fill="#FDFDFD"/>
</svg>
