<svg width="19" height="19" viewBox="0 0 19 19" fill="none" xmlns="http://www.w3.org/2000/svg">
<path fill-rule="evenodd" clip-rule="evenodd" d="M14.4935 0C16.9823 0 19 2.01762 19 4.50647V14.4934C19 16.9823 16.9823 18.9999 14.4935 18.9999H4.50647C2.01762 18.9999 0 16.9823 0 14.4934V4.50647C0 2.01762 2.01762 0 4.50647 0H14.4935ZM15.2374 2.53437C14.6532 2.53437 14.1789 3.00877 14.1789 3.59316C14.1789 4.17748 14.6532 4.65188 15.2374 4.65188C15.8215 4.65188 16.2959 4.17748 16.2959 3.59316C16.2959 3.00877 15.8215 2.53437 15.2374 2.53437ZM14.2349 9.49998C14.2349 6.88659 12.1132 4.76491 9.49998 4.76491C6.88673 4.76491 4.76505 6.88659 4.76505 9.49998C4.76505 12.1133 6.88673 14.235 9.49998 14.235C12.1132 14.235 14.2349 12.1133 14.2349 9.49998Z" fill="#F4F5F5"/>
</svg>
