<svg width="31" height="35" viewBox="0 0 31 35" fill="none" xmlns="http://www.w3.org/2000/svg">
<path d="M21.2933 32.7225L17.5887 26.7799L21.0523 21.206H28.1664L21.2933 32.7225ZM16.4151 24.8973L14.1081 21.1966H18.7147L16.4151 24.8973ZM11.542 32.7393L2.09072 17.3383C1.95106 17.1104 1.9556 16.8191 2.10239 16.5958L11.5437 2.23347L15.1368 7.62626L10.064 15.5888C9.51218 16.4553 9.50662 17.5781 10.0499 18.4496L10.5256 19.2129H7.12346C6.68943 19.2129 6.42153 19.7523 6.64504 20.176L7.0209 20.8884C7.12181 21.0796 7.30336 21.1966 7.49924 21.1966H11.7624L15.2442 26.7815L11.542 32.7393ZM20.9305 2.23645L28.0334 12.6263H20.925C20.884 12.6263 20.8462 12.6061 20.8234 12.5719L17.5121 7.60207L20.9305 2.23645ZM30.4535 19.9073C30.2113 19.4806 29.7559 19.2155 29.2651 19.2155H27.492V19.2129H12.8714L11.739 17.3966C11.5989 17.1718 11.6003 16.882 11.7429 16.6585L16.3432 9.43721L19.1666 13.6752C19.5592 14.2646 20.2165 14.6167 20.925 14.6167H29.2155C29.7241 14.6167 30.1872 14.3373 30.4244 13.8876C30.6615 13.4378 30.6306 12.8979 30.3437 12.4788L22.3177 0.738959C21.9963 0.268527 21.4605 -0.00845514 20.8944 0.0022703C20.3246 0.0115083 19.8015 0.303757 19.4953 0.784366L16.3058 5.79111L12.9496 0.753521C12.6339 0.279957 12.0958 0.00344467 11.5369 0C10.9679 0.00180062 10.4415 0.286534 10.1289 0.762054L0.439004 15.5024C-0.1296 16.3676 -0.147292 17.4968 0.394303 18.3792L10.0989 34.1935C10.4083 34.697 10.9452 34.9984 11.5359 35H11.5405C12.1293 35 12.666 34.7018 12.9767 34.2015L16.4178 28.6641L19.8636 34.1918C20.1751 34.6913 20.7104 34.9883 21.2982 34.9883C21.3038 34.9883 21.3094 34.9883 21.3149 34.988C21.9093 34.9825 22.446 34.6744 22.751 34.1639L30.4387 21.2826C30.6901 20.861 30.696 20.3342 30.4535 19.9073Z" fill="#E6C364"/>
</svg>
