<svg width="21" height="20" viewBox="0 0 21 20" fill="none" xmlns="http://www.w3.org/2000/svg">
<path d="M10.0289 4.53102C9.92828 4.82153 9.78159 5.21707 9.58827 5.71644C9.3948 6.21672 9.17462 6.79457 8.92727 7.44953C8.68053 8.10479 8.4036 8.82631 8.09876 9.61423C7.79346 10.4018 7.48288 11.2279 7.16762 12.0925H12.8869C12.5812 11.2254 12.2846 10.3966 11.9981 9.60638C11.7109 8.8165 11.4383 8.09348 11.1803 7.43791C10.9217 6.78264 10.6955 6.20555 10.5005 5.70573C10.3057 5.20681 10.1485 4.81519 10.0289 4.53102ZM15.4383 20.0002C15.2154 19.3053 14.9765 18.5916 14.7202 17.8592C14.464 17.1267 14.2088 16.3972 13.9549 15.6711H6.14368C5.89135 16.4006 5.63797 17.1318 5.38458 17.865C5.1306 18.5981 4.89412 19.3103 4.67544 20.0002H0C0.752755 17.8456 1.46657 15.8543 2.14191 14.026C2.81785 12.1985 3.47825 10.4764 4.12506 8.86011C4.77142 7.24399 5.40843 5.70995 6.03562 4.25711C6.66267 2.80442 7.31431 1.38538 7.9901 0H12.2575C12.9147 1.38538 13.562 2.80442 14.2003 4.25711C14.8378 5.70995 15.4808 7.24399 16.1285 8.86011C16.7758 10.4764 17.4382 12.1985 18.1146 14.026C18.791 15.8543 19.5061 17.8456 20.2601 20.0002H15.4383Z" fill="#FDFDFD"/>
</svg>
