<svg width="17" height="21" viewBox="0 0 17 21" fill="none" xmlns="http://www.w3.org/2000/svg">
<path d="M10.6577 3.93869C8.55296 3.93869 7.03249 4.52265 6.09612 5.69072C5.15946 6.85909 4.69181 8.45649 4.69181 10.484C4.69181 11.4687 4.80736 12.3619 5.03906 13.1628C5.27077 13.9641 5.61863 14.6542 6.08204 15.2335C6.54515 15.8128 7.12456 16.2616 7.81968 16.5801C8.51449 16.8987 9.32561 17.0581 10.2521 17.0581C10.754 17.0581 11.1836 17.0484 11.5409 17.0291C11.898 17.0101 12.2115 16.9711 12.4823 16.9133V9.9335H17.0001V19.8675C16.4596 20.0801 15.5906 20.3066 14.3939 20.5479C13.1963 20.7891 11.7194 20.9098 9.96258 20.9098C8.45664 20.9098 7.09079 20.6781 5.86442 20.2147C4.6382 19.7514 3.59098 19.0759 2.72246 18.1875C1.85334 17.2998 1.18261 16.2086 0.709352 14.9149C0.236097 13.6216 0 12.1445 0 10.484C0 8.80405 0.260479 7.31765 0.782195 6.02374C1.30346 4.73058 2.01735 3.6346 2.92494 2.7367C3.83253 1.83895 4.89913 1.15838 6.12535 0.694965C7.35112 0.231706 8.65912 0 10.0495 0C10.9953 0 11.8497 0.0626973 12.6125 0.188242C13.3749 0.313939 14.0315 0.458716 14.5818 0.622576C15.1322 0.78689 15.5859 0.955596 15.943 1.12945C16.3002 1.30315 16.556 1.43839 16.7107 1.53486L15.4072 5.15492C14.7892 4.82674 14.0798 4.54218 13.2785 4.30063C12.4771 4.05954 11.6034 3.93869 10.6577 3.93869Z" fill="#FDFDFD"/>
</svg>
