<svg width="11" height="14" viewBox="0 0 11 14" fill="none" xmlns="http://www.w3.org/2000/svg">
<path d="M5.28802 5.84344C5.23495 5.99662 5.1576 6.20518 5.05567 6.46849C4.95366 6.73227 4.83756 7.03696 4.70714 7.38231C4.57704 7.72781 4.43102 8.10825 4.27029 8.5237C4.10931 8.93899 3.94555 9.37458 3.77932 9.83045H6.79498C6.63376 9.37322 6.4774 8.93621 6.32629 8.51956C6.17487 8.10308 6.03116 7.72184 5.89509 7.37618C5.75878 7.03067 5.6395 6.72639 5.53669 6.46284C5.43396 6.19977 5.35105 5.99328 5.28802 5.84344ZM8.18687 0.73048C8.12616 0.882703 8.04244 1.05005 7.93598 1.23267C7.82935 1.41529 7.70012 1.58533 7.54774 1.74241C7.3956 1.89981 7.223 2.02919 7.03036 2.13049C6.83771 2.23194 6.62461 2.28263 6.39123 2.28263C6.20868 2.28263 6.0388 2.25478 5.88148 2.199C5.72416 2.14338 5.56955 2.08243 5.41741 2.01638C5.26527 1.95041 5.1132 1.88954 4.96082 1.83376C4.80868 1.77806 4.65136 1.75005 4.48911 1.75005C4.28612 1.75005 4.1187 1.81617 3.98701 1.94787C3.85515 2.07988 3.74845 2.23194 3.66744 2.40438L2.5566 1.67406C2.61732 1.52183 2.70111 1.35441 2.80781 1.17179C2.9142 0.989172 3.04359 0.819443 3.19573 0.662047C3.34788 0.504811 3.52031 0.375585 3.71312 0.27397C3.90576 0.172674 4.1187 0.121826 4.35233 0.121826C4.53479 0.121826 4.70468 0.149836 4.86199 0.205537C5.01907 0.261397 5.17392 0.322191 5.32606 0.388157C5.4782 0.454203 5.62788 0.515076 5.77509 0.570618C5.92198 0.626558 6.08177 0.654408 6.25444 0.654408C6.45719 0.654408 6.62461 0.588601 6.75647 0.45659C6.88832 0.324817 6.99479 0.172673 7.07603 0L8.18687 0.73048ZM8.14024 14C8.02271 13.6336 7.89675 13.2573 7.76163 12.8711C7.62652 12.4848 7.49196 12.1002 7.35812 11.7174H3.2395C3.10637 12.102 2.97277 12.4876 2.83917 12.8741C2.70524 13.2607 2.58055 13.6362 2.46525 14H0C0.39691 12.8639 0.773291 11.814 1.12938 10.8499C1.48579 9.88631 1.834 8.9783 2.17505 8.12608C2.51586 7.27393 2.85174 6.46507 3.18244 5.69902C3.51307 4.93305 3.85667 4.18482 4.21299 3.45434H6.46308C6.80962 4.18482 7.15091 4.93305 7.4875 5.69902C7.82362 6.46507 8.16268 7.27393 8.50421 8.12608C8.84557 8.9783 9.19474 9.88631 9.55139 10.8499C9.90803 11.814 10.2851 12.8639 10.6827 14H8.14024Z" fill="#FFFAF3"/>
</svg>
