<svg width="11" height="11" viewBox="0 0 11 11" fill="none" xmlns="http://www.w3.org/2000/svg">
<path d="M2.44945 5.50768C2.44945 6.02497 2.51262 6.4915 2.63959 6.90735C2.76649 7.32336 2.949 7.6809 3.18751 7.97996C3.42555 8.27926 3.71737 8.51006 4.06234 8.6722C4.40699 8.83466 4.80263 8.91565 5.24903 8.91565C5.68509 8.91565 6.07819 8.83466 6.42809 8.6722C6.77799 8.51006 7.07204 8.27926 7.31055 7.97996C7.54883 7.6809 7.73134 7.32336 7.85823 6.90735C7.98489 6.4915 8.04838 6.02497 8.04838 5.50768C8.04838 4.99039 7.98489 4.52139 7.85823 4.10029C7.73134 3.6795 7.54883 3.31934 7.31055 3.02004C7.07204 2.72098 6.77799 2.49018 6.42809 2.3278C6.07819 2.16558 5.68509 2.08443 5.24903 2.08443C4.80263 2.08443 4.40699 2.16805 4.06234 2.33536C3.71737 2.50275 3.42555 2.73626 3.18751 3.03532C2.949 3.33454 2.76649 3.6947 2.63959 4.11556C2.51262 4.53651 2.44945 5.00049 2.44945 5.50768ZM10.4981 5.50768C10.4981 6.41059 10.3635 7.20402 10.0948 7.8887C9.82596 8.57331 9.45824 9.14653 8.99178 9.60788C8.52517 10.0696 7.96986 10.4169 7.32583 10.6502C6.6814 10.8833 5.98932 11 5.24903 11C4.52879 11 3.84928 10.8833 3.21027 10.6502C2.57117 10.4169 2.01339 10.0696 1.53659 9.60788C1.0598 9.14653 0.684681 8.57331 0.41084 7.8887C0.136841 7.20402 0 6.41059 0 5.50768C0 4.60493 0.142012 3.81125 0.425956 3.12649C0.709901 2.44197 1.0929 1.86628 1.57462 1.39967C2.05635 0.933222 2.61413 0.583323 3.2483 0.349899C3.88206 0.116633 4.549 0 5.24903 0C5.96904 0 6.64879 0.116633 7.2878 0.349899C7.92665 0.583323 8.48436 0.933222 8.96123 1.39967C9.43803 1.86628 9.81331 2.44197 10.0871 3.12649C10.361 3.81125 10.4981 4.60493 10.4981 5.50768Z" fill="#FFFAF3"/>
</svg>
