<svg width="8" height="11" viewBox="0 0 8 11" fill="none" xmlns="http://www.w3.org/2000/svg">
<path d="M3.29691 2.01131C3.12538 2.01131 2.95671 2.01645 2.79032 2.02642C2.62394 2.03654 2.48033 2.04674 2.35934 2.05654V5.08118H3.10032C3.91689 5.08118 4.53166 4.97039 4.94524 4.74849C5.35851 4.52691 5.56546 4.11333 5.56546 3.50853C5.56546 3.21609 5.5124 2.97418 5.40667 2.78257C5.30063 2.59112 5.14943 2.43731 4.95284 2.3213C4.75624 2.20561 4.51671 2.12471 4.23448 2.07924C3.95224 2.03401 3.63956 2.01131 3.29691 2.01131ZM3.14571 0C4.7084 0 5.90812 0.274723 6.74502 0.824168C7.58168 1.37377 8.00017 2.27354 8.00017 3.52355C8.00017 4.784 7.57678 5.69365 6.72975 6.2533C5.88305 6.81287 4.67305 7.09265 3.10032 7.09265H2.35934V10.6011H0V0.272192C0.514176 0.171366 1.0588 0.100906 1.63339 0.0603378C2.20814 0.0202444 2.71204 0 3.14571 0Z" fill="#FFFAF3"/>
</svg>
