<svg width="8" height="11" viewBox="0 0 8 11" fill="none" xmlns="http://www.w3.org/2000/svg">
<path d="M3.29691 2.01139C3.12538 2.01139 2.95679 2.01653 2.79032 2.02641C2.62394 2.03662 2.48033 2.04682 2.35942 2.05662V5.08126H3.10032C3.91689 5.08126 4.53166 4.97047 4.94524 4.74857C5.35859 4.52699 5.56546 4.11341 5.56546 3.50853C5.56546 3.21617 5.51248 2.97426 5.40667 2.78265C5.30063 2.5912 5.14943 2.43731 4.95284 2.32138C4.75624 2.20561 4.51671 2.12479 4.23448 2.07932C3.95224 2.03409 3.63956 2.01139 3.29691 2.01139ZM3.14571 0C4.7084 0 5.90812 0.274802 6.74502 0.824168C7.58168 1.37385 8.00017 2.27362 8.00017 3.52363C8.00017 4.78408 7.57678 5.69373 6.72983 6.25338C5.88305 6.81295 4.67305 7.09273 3.10032 7.09273H2.35942V10.6012H0V0.272271C0.514255 0.171445 1.0588 0.100906 1.63339 0.0604168C2.20814 0.0202444 2.71204 0 3.14571 0Z" fill="#FFFAF3"/>
</svg>
