<svg width="33" height="22" viewBox="0 0 33 22" fill="none" xmlns="http://www.w3.org/2000/svg">
<path d="M23.6837 0C20.9778 0 18.8626 2.03802 16.9478 4.62694C14.3165 1.27662 12.116 0 9.48255 0C4.11364 0 0 6.98714 0 14.3826C0 19.0105 2.23889 21.9293 5.98898 21.9293C8.68805 21.9293 10.6292 20.6569 14.0801 14.6246C14.0801 14.6246 15.5186 12.0843 16.5083 10.3344C16.855 10.8943 17.2203 11.4976 17.604 12.1443L19.2222 14.8666C22.3745 20.1416 24.1308 21.9293 27.3134 21.9293C30.9667 21.9293 32.9999 18.9706 32.9999 14.2465C32.9999 6.50318 28.7935 0 23.6837 0ZM11.4486 12.9912C8.65074 17.3771 7.68283 18.3601 6.12509 18.3601C4.52198 18.3601 3.56919 16.9528 3.56919 14.4431C3.56919 9.07421 6.24608 3.58431 9.43717 3.58431C11.1652 3.58431 12.6093 4.58232 14.8213 7.74898C12.7209 10.9706 11.4486 12.9912 11.4486 12.9912ZM22.0082 12.4391L20.0734 9.21224C19.5498 8.36068 19.0466 7.57685 18.5638 6.86076C20.3076 4.16926 21.7461 2.82813 23.4568 2.82813C27.0109 2.82813 29.8541 8.06093 29.8541 14.4885C29.8541 16.9385 29.0517 18.3601 27.389 18.3601C25.7954 18.3601 25.0341 17.3077 22.0082 12.4391Z" fill="white"/>
</svg>
