<svg width="17" height="21" viewBox="0 0 17 21" fill="none" xmlns="http://www.w3.org/2000/svg">
<path d="M8.34675 20.9999C6.90103 20.9999 5.6535 20.7967 4.60415 20.391C3.55419 19.9855 2.68844 19.4212 2.00487 18.6982C1.32177 17.9755 0.816983 17.1139 0.49019 16.1138C0.163396 15.1142 0 14.0102 0 12.8021V0H4.63397V12.4157C4.63397 13.2476 4.72748 13.9555 4.91604 14.5397C5.10397 15.124 5.36134 15.5993 5.68829 15.9654C6.01508 16.3319 6.41084 16.5942 6.87649 16.7525C7.3412 16.9111 7.85128 16.9903 8.40608 16.9903C9.53448 16.9903 10.4504 16.6438 11.1538 15.9503C11.8562 15.2577 12.208 14.0793 12.208 12.4157V0H16.8415V12.8021C16.8415 14.0102 16.6733 15.1189 16.3369 16.1287C15.9998 17.1386 15.4849 18.0052 14.7924 18.7277C14.0987 19.4507 13.2179 20.01 12.1488 20.4061C11.079 20.8019 9.81173 20.9999 8.34675 20.9999Z" fill="#FDFDFD"/>
</svg>
