<svg width="48" height="48" viewBox="0 0 48 48" fill="none" xmlns="http://www.w3.org/2000/svg">
<path d="M43.0779 24.4251V29.3089H38.1911V24.4251H33.3773C33.2684 26.9071 32.1923 29.2478 30.3792 30.9462C28.5662 32.6446 26.1603 33.5658 23.6765 33.5125C21.1928 33.4592 18.8286 32.4357 17.0901 30.661C15.3515 28.8864 14.3768 26.5017 14.3745 24.0174V1.99917C14.3749 1.73703 14.3237 1.47738 14.2237 1.23505C14.1238 0.992716 13.9771 0.772443 13.792 0.586803C13.6069 0.401163 13.3871 0.253793 13.1451 0.153109C12.9031 0.0524256 12.6436 0.000399291 12.3814 0H1.99612C1.46644 0.000806218 0.958724 0.211788 0.584465 0.586617C0.210207 0.961446 -6.13559e-07 1.46948 0 1.99917V24.06C0.00430568 30.3792 2.50519 36.4408 6.95802 40.9246C11.4108 45.4084 17.4549 47.9513 23.7739 47.9995C30.093 48.0476 36.1751 45.5972 40.6957 41.1817C45.2164 36.7663 47.8094 30.7435 47.91 24.4251H43.0779Z" fill="#0A0A0A"/>
</svg>
