<svg width="8" height="7" viewBox="0 0 8 7" fill="none" xmlns="http://www.w3.org/2000/svg">
<path d="M5.00391 4.04729C4.90602 4.14291 4.86123 4.28056 4.88412 4.41545L5.1257 5.82265L3.86194 5.15856C3.80154 5.12635 3.73486 5.11049 3.66842 5.11049C3.60199 5.11049 3.5353 5.12635 3.47465 5.15856L2.21114 5.82265L2.45272 4.41545C2.47562 4.28056 2.43083 4.14291 2.33294 4.04729L1.3105 3.05077L2.72324 2.84543C2.85862 2.82605 2.97589 2.74049 3.03679 2.61794L3.66842 1.33807L4.30005 2.61794C4.3607 2.74049 4.47797 2.82605 4.61361 2.84543L6.0261 3.05077L5.00391 4.04729ZM7.31628 2.63178C7.26747 2.48079 7.13711 2.37107 6.98034 2.34843L4.94955 2.05324L4.04161 0.213459C3.90145 -0.071153 3.43515 -0.071153 3.29498 0.213459L2.38704 2.05324L0.356507 2.34843C0.19948 2.37107 0.0693787 2.48079 0.0203077 2.63178C-0.0285116 2.78201 0.0122552 2.94734 0.125748 3.05807L1.59511 4.49069L1.24834 6.51317C1.22167 6.66919 1.28584 6.82697 1.41392 6.92008C1.4864 6.97293 1.57246 6.9996 1.65852 6.9996C1.72471 6.9996 1.79114 6.98375 1.85229 6.95179L3.66842 5.99704L5.4848 6.95179C5.62497 7.02602 5.79508 7.01344 5.92317 6.92008C6.05101 6.82697 6.11543 6.66919 6.08875 6.51317L5.74173 4.49019L7.2111 3.05807C7.32434 2.94734 7.36536 2.78201 7.31628 2.63178Z" fill="#FDFDFD"/>
</svg>
