<svg width="53" height="34" viewBox="0 0 53 34" fill="none" xmlns="http://www.w3.org/2000/svg">
<path d="M52.9998 4.90123V19.2902H48.0956V4.90428H38.5284V9.81162H33.7066V14.4317H38.5284V19.2902H48.0956V24.1945H38.4276V19.3391H33.7066V33.7708H28.8023V0H33.7066V4.90428H38.4276V0H48.0956V4.889L52.9998 4.90123ZM0 0.0122228V4.9165H4.90733V0L0 0.0122228ZM4.90733 4.9165V9.82384H9.81162V4.90428L4.90733 4.9165ZM9.81162 14.7281H14.7006V9.81162H9.81162V14.7281ZM19.6232 19.6324V14.7159H14.7159V19.6202L19.6232 19.6324ZM24.5275 24.5397V19.6202H19.6232V24.5275L24.5275 24.5397ZM4.90733 19.6324H9.81162V14.7159H4.90733V19.6324ZM0 24.5397H4.90733V19.6202H0V24.5397ZM19.6232 4.9165H24.5275V0H19.6232V4.9165ZM14.7159 9.82384H19.6232V4.90428H14.7159V9.82384Z" fill="url(#paint0_linear_0_389)"/>
<defs>
<linearGradient id="paint0_linear_0_389" x1="0" y1="16.8854" x2="52.9998" y2="16.8854" gradientUnits="userSpaceOnUse">
<stop stop-color="#04D960"/>
<stop offset="1" stop-color="#B3D929"/>
</linearGradient>
</defs>
</svg>
