<svg width="27" height="24" viewBox="0 0 27 24" fill="none" xmlns="http://www.w3.org/2000/svg">
<path d="M0.802832 9.55098C0.802832 9.14422 1.13362 8.81319 1.54038 8.81319H7.92274C8.3295 8.81319 8.66029 9.14422 8.66029 9.55098V22.0677C8.66029 22.4742 8.3295 22.805 7.92274 22.805H1.54038C1.13362 22.805 0.802832 22.4742 0.802832 22.0677V9.55098ZM14.7742 1.48213C14.8201 1.09479 15.1446 0.802831 15.529 0.802831H15.9984C16.1654 0.831712 17.7169 1.19017 17.9695 4.45295C17.9627 4.70972 17.8873 7.34246 17.689 8.33314C17.6863 8.34673 17.6904 8.35935 17.6892 8.3727C17.6878 8.38629 17.6812 8.39794 17.6812 8.41177C17.6812 8.42609 17.6878 8.43798 17.6892 8.45182C17.6921 8.47924 17.697 8.50472 17.7052 8.53045C17.713 8.55496 17.722 8.57753 17.7341 8.59986C17.7465 8.62267 17.7601 8.64282 17.7766 8.66272C17.7929 8.68286 17.8101 8.70033 17.8302 8.71684C17.8497 8.7331 17.8698 8.7462 17.8921 8.75858C17.9159 8.77193 17.9402 8.78164 17.9666 8.78989C17.9797 8.79401 17.9902 8.80275 18.0038 8.80542C18.0176 8.80809 18.0302 8.80421 18.0438 8.80542C18.0574 8.80688 18.0688 8.81319 18.0826 8.81319H24.6502C25.5032 8.81319 26.1971 9.50753 26.1971 10.3604C26.1971 11.2134 25.5032 11.9075 24.6502 11.9075H21.8354C21.6138 11.9075 21.434 12.0871 21.434 12.3089C21.434 12.5308 21.6138 12.7104 21.8354 12.7104H24.9749C25.6489 12.7104 26.1971 13.2586 26.1971 13.9328C26.1971 14.6068 25.6489 15.155 24.9749 15.155H22.2684C22.0468 15.155 21.867 15.3346 21.867 15.5564C21.867 15.7783 22.0468 15.9579 22.2684 15.9579H24.7582C25.5515 15.9579 26.1971 16.6034 26.1971 17.3968C26.1971 18.1902 25.5515 18.8357 24.7582 18.8357H22.2684C22.0468 18.8357 21.867 19.0153 21.867 19.2371C21.867 19.459 22.0468 19.6385 22.2684 19.6385H23.5675C24.3609 19.6385 25.0065 20.2841 25.0065 21.0775C25.0065 21.8708 24.3609 22.5164 23.5675 22.5164H13.2084C12.3106 22.5164 11.4736 22.3672 10.7198 22.0728C10.1657 21.8565 9.74028 21.5934 9.46312 21.309V10.3436C10.5526 9.99316 13.9585 8.35886 14.7742 1.48213ZM0 9.55098V22.0677C0 22.9166 0.691192 23.6078 1.54038 23.6078H7.92274C8.6848 23.6078 9.31508 23.0499 9.4374 22.322C9.71868 22.506 10.0492 22.6727 10.4281 22.8208C11.2748 23.1515 12.2102 23.3192 13.2084 23.3192H23.5675C24.8036 23.3192 25.809 22.3135 25.809 21.0775C25.809 20.5045 25.5911 19.9827 25.2363 19.5861C26.2432 19.3662 26.9999 18.4685 26.9999 17.3968C26.9999 16.6675 26.6483 16.0205 26.1073 15.6108C26.6456 15.2465 26.9999 14.6303 26.9999 13.9328C26.9999 13.2183 26.626 12.5924 26.0656 12.2318C26.6318 11.8022 26.9999 11.1244 26.9999 10.3604C26.9999 9.06462 25.9457 8.0106 24.6502 8.0106H18.5515C18.7139 6.73112 18.7699 4.55731 18.7726 4.45295C18.7729 4.43911 18.7726 4.42577 18.7716 4.41242C18.4612 0.30094 16.1654 0.0126197 16.0678 0.00242653C16.054 0.000727674 16.0401 0 16.0261 0H15.529C14.7381 0 14.0707 0.596542 13.9767 1.38724C13.2673 7.37061 10.5601 9.05224 9.4573 9.49419C9.42672 8.6717 8.75251 8.0106 7.92274 8.0106H1.54038C0.691192 8.0106 0 8.70155 0 9.55098Z" fill="#FDFDFD"/>
</svg>
