<svg width="8" height="7" viewBox="0 0 8 7" fill="none" xmlns="http://www.w3.org/2000/svg">
<path d="M5.00409 4.04794C4.9062 4.14357 4.8614 4.28122 4.8843 4.41611L5.12589 5.82286L3.86208 5.15874C3.80168 5.12678 3.73499 5.11093 3.66856 5.11093C3.60212 5.11093 3.53543 5.12678 3.47478 5.15874L2.21122 5.82286L2.45256 4.41611C2.47546 4.28122 2.43091 4.14357 2.33277 4.04794L1.31055 3.05138L2.72359 2.84553C2.85898 2.82615 2.976 2.74084 3.0369 2.61803L3.66856 1.33811L4.30021 2.61803C4.36086 2.74084 4.47788 2.82615 4.61352 2.84553L6.02656 3.05138L5.00409 4.04794ZM7.31655 2.63238C7.26773 2.48138 7.13737 2.37166 6.98059 2.34901L4.94973 2.05357L4.04176 0.213467C3.90159 -0.0711555 3.43527 -0.0711555 3.2951 0.213467L2.38713 2.05357L0.356268 2.34901C0.199739 2.37166 0.0693812 2.48138 0.0203085 2.63238C-0.0285127 2.78262 0.0122556 2.94795 0.125752 3.05868L1.59492 4.49085L1.24813 6.5134C1.22146 6.66968 1.28563 6.82722 1.41372 6.92033C1.54207 7.01395 1.71194 7.02603 1.85211 6.95204L3.66856 5.99726L5.485 6.95204C5.5459 6.98425 5.61234 7.00011 5.67853 7.00011C5.76484 7.00011 5.85066 6.97318 5.92339 6.92033C6.05123 6.82722 6.11565 6.66968 6.08898 6.5134L5.74194 4.49085L7.21136 3.05868C7.3246 2.94795 7.36562 2.78262 7.31655 2.63238Z" fill="#FDFDFD"/>
</svg>
