<svg width="8" height="7" viewBox="0 0 8 7" fill="none" xmlns="http://www.w3.org/2000/svg">
<path d="M2.71622 2.85669C2.8515 2.83711 2.96821 2.75203 3.02844 2.6298L3.65891 1.3533L4.28888 2.6298C4.34937 2.75203 4.46607 2.83711 4.60135 2.85669L6.01037 3.06174L4.99063 4.05588C4.89299 4.15101 4.84832 4.28855 4.87141 4.42307L5.1121 5.82607L3.85217 5.16372C3.73119 5.09947 3.58663 5.09947 3.46565 5.16372L2.20547 5.82607L2.44616 4.42307C2.46925 4.28855 2.42458 4.15101 2.32694 4.05588L1.3072 3.06174L2.71622 2.85669ZM0.0204116 2.64385C-0.0285301 2.79394 0.0121292 2.95884 0.125323 3.06902L1.59081 4.49761L1.24496 6.51476C1.21835 6.67037 1.28235 6.82774 1.4101 6.9206C1.53811 7.01372 1.70777 7.02602 1.84732 6.95223L3.65891 6L5.47025 6.95223C5.53099 6.9841 5.59725 6.99991 5.66351 6.99991C5.74935 6.99991 5.83518 6.97331 5.90747 6.9206C6.03522 6.82774 6.09922 6.67037 6.07261 6.51476L5.72676 4.49761L7.19225 3.06902C7.30544 2.95884 7.3461 2.79394 7.29716 2.64385C7.24847 2.49352 7.11846 2.38409 6.96235 2.36125L4.93692 2.06659L4.03112 0.231406C3.96135 0.0896009 3.81703 0 3.65891 0C3.50079 0 3.35673 0.0896009 3.2867 0.231406L2.38065 2.06659L0.355474 2.36125C0.199111 2.38409 0.0691023 2.49352 0.0204116 2.64385Z" fill="#FDFDFD"/>
</svg>
