<svg width="29" height="23" viewBox="0 0 29 23" fill="none" xmlns="http://www.w3.org/2000/svg">
<path d="M22.0104 0.617306L21.4671 1.01675L18.7506 3.00593C15.5162 5.37727 11.8866 7.14667 8.0404 8.2388C7.37981 8.4271 6.71366 8.59565 6.04072 8.74258C5.90305 8.7716 5.76661 8.80679 5.6314 8.84507C3.10387 9.56369 1.18753 11.6652 0.724501 14.273C0.538671 15.3189 0.597939 16.377 0.879462 17.3686C1.16222 18.3631 1.66785 19.2941 2.37536 20.0825C4.14106 22.0606 6.87541 22.8379 9.40295 22.1199C9.53815 22.0816 9.67274 22.0402 9.80486 21.9921C14.237 20.4369 18.947 19.8232 23.6334 20.1924L26.9901 20.4567L27.6624 20.5104" stroke="#FDFDFD" stroke-width="1.22328" stroke-miterlimit="10" stroke-linecap="round" stroke-linejoin="round"/>
</svg>
